<mxfile host="Electron" agent="Mozilla/5.0 (Windows NT 10.0; Win64; x64) AppleWebKit/537.36 (KHTML, like Gecko) draw.io/27.0.9 Chrome/134.0.6998.205 Electron/35.4.0 Safari/537.36" version="27.0.9">
  <diagram name="페이지-1" id="K8j97Pho3i9P5nVVjONq">
    <mxGraphModel dx="16254" dy="3331" grid="1" gridSize="10" guides="1" tooltips="1" connect="1" arrows="1" fold="1" page="1" pageScale="1" pageWidth="827" pageHeight="1169" math="0" shadow="0">
      <root>
        <mxCell id="0" />
        <mxCell id="1" parent="0" />
        <mxCell id="G0KeurTFWzJhfIRalW9M-125" value="" style="rounded=0;whiteSpace=wrap;html=1;" vertex="1" parent="1">
          <mxGeometry x="-1600" y="4676" width="4780" height="7494" as="geometry" />
        </mxCell>
        <mxCell id="aZRdA0g6S1LYIyoUrLUo-617" value="" style="rounded=0;whiteSpace=wrap;html=1;" parent="1" vertex="1">
          <mxGeometry x="-1155" y="5120" width="3895" height="2353.26" as="geometry" />
        </mxCell>
        <mxCell id="aZRdA0g6S1LYIyoUrLUo-406" value="" style="rounded=0;whiteSpace=wrap;html=1;fontSize=20;" parent="1" vertex="1">
          <mxGeometry x="-430.25" y="6610" width="424.75" height="590" as="geometry" />
        </mxCell>
        <mxCell id="aZRdA0g6S1LYIyoUrLUo-407" value="" style="rounded=0;whiteSpace=wrap;html=1;fontSize=33;" parent="1" vertex="1">
          <mxGeometry x="94.5" y="6435" width="1440" height="940" as="geometry" />
        </mxCell>
        <mxCell id="aZRdA0g6S1LYIyoUrLUo-415" value="" style="endArrow=classic;html=1;rounded=0;exitX=1.013;exitY=0.178;exitDx=0;exitDy=0;exitPerimeter=0;strokeWidth=6;" parent="1" edge="1">
          <mxGeometry width="50" height="50" relative="1" as="geometry">
            <mxPoint x="-4.25" y="6646.97" as="sourcePoint" />
            <mxPoint x="95.75" y="6647.64" as="targetPoint" />
          </mxGeometry>
        </mxCell>
        <mxCell id="aZRdA0g6S1LYIyoUrLUo-416" value="&lt;font style=&quot;font-size: 22px;&quot;&gt;8&lt;/font&gt;" style="text;html=1;align=center;verticalAlign=middle;whiteSpace=wrap;rounded=0;" parent="1" vertex="1">
          <mxGeometry x="16.75" y="6610.000000000001" width="58" height="30" as="geometry" />
        </mxCell>
        <mxCell id="aZRdA0g6S1LYIyoUrLUo-424" value="&lt;font style=&quot;font-size: 50px;&quot;&gt;CBFP1&lt;/font&gt;" style="text;html=1;align=center;verticalAlign=middle;whiteSpace=wrap;rounded=0;" parent="1" vertex="1">
          <mxGeometry x="535" y="5160" width="650" height="160" as="geometry" />
        </mxCell>
        <mxCell id="aZRdA0g6S1LYIyoUrLUo-427" value="&lt;div style=&quot;text-align: start;&quot;&gt;&lt;span style=&quot;background-color: transparent; font-size: 0px; text-wrap-mode: nowrap;&quot;&gt;&lt;font face=&quot;monospace&quot; color=&quot;rgba(0, 0, 0, 0)&quot;&gt;IM&lt;/font&gt;&lt;/span&gt;&lt;/div&gt;" style="text;html=1;align=center;verticalAlign=middle;whiteSpace=wrap;rounded=0;" parent="1" vertex="1">
          <mxGeometry x="1211.75" y="6965" width="60" height="30" as="geometry" />
        </mxCell>
        <mxCell id="aZRdA0g6S1LYIyoUrLUo-428" value="&lt;div style=&quot;text-align: start;&quot;&gt;&lt;span style=&quot;background-color: transparent; font-size: 0px; text-wrap-mode: nowrap;&quot;&gt;&lt;font face=&quot;monospace&quot; color=&quot;rgba(0, 0, 0, 0)&quot;&gt;IM&lt;/font&gt;&lt;/span&gt;&lt;/div&gt;" style="text;html=1;align=center;verticalAlign=middle;whiteSpace=wrap;rounded=0;" parent="1" vertex="1">
          <mxGeometry x="1570.75" y="6967.96" width="60" height="30" as="geometry" />
        </mxCell>
        <mxCell id="aZRdA0g6S1LYIyoUrLUo-432" value="CBFP_SHIFT_REG_3CLK" style="rounded=0;whiteSpace=wrap;html=1;fontSize=33;" parent="1" vertex="1">
          <mxGeometry x="267" y="5450" width="1095" height="920" as="geometry" />
        </mxCell>
        <mxCell id="aZRdA0g6S1LYIyoUrLUo-452" value="2_in_min[0]" style="whiteSpace=wrap;html=1;aspect=fixed;fontSize=25;" parent="1" vertex="1">
          <mxGeometry x="1135.75" y="6665" width="130" height="130" as="geometry" />
        </mxCell>
        <mxCell id="aZRdA0g6S1LYIyoUrLUo-453" value="&lt;font style=&quot;font-size: 46px;&quot;&gt;4Stage: MIN 비교기_RE&lt;/font&gt;" style="text;html=1;align=center;verticalAlign=middle;whiteSpace=wrap;rounded=0;" parent="1" vertex="1">
          <mxGeometry x="355.75" y="6445" width="560" height="70" as="geometry" />
        </mxCell>
        <mxCell id="aZRdA0g6S1LYIyoUrLUo-455" value="" style="endArrow=classic;html=1;rounded=0;entryX=0;entryY=0.078;entryDx=0;entryDy=0;entryPerimeter=0;strokeWidth=6;fontSize=25;" parent="1" edge="1">
          <mxGeometry width="50" height="50" relative="1" as="geometry">
            <mxPoint x="-1186.5" y="6726.21" as="sourcePoint" />
            <mxPoint x="-427.5" y="6726.21" as="targetPoint" />
          </mxGeometry>
        </mxCell>
        <mxCell id="aZRdA0g6S1LYIyoUrLUo-456" value="&lt;font style=&quot;font-size: 40px;&quot;&gt;&lt;span style=&quot;background-color: rgb(255, 255, 255); font-family: Consolas, &amp;quot;Courier New&amp;quot;, monospace; white-space: pre; color: light-dark(rgb(0, 0, 0), rgb(255, 255, 255));&quot;&gt;data_in_R_add&lt;/span&gt;[0:7][24:0]&lt;/font&gt;" style="text;html=1;align=center;verticalAlign=middle;whiteSpace=wrap;rounded=0;fontSize=25;" parent="1" vertex="1">
          <mxGeometry x="-1280" y="6666.21" width="592" height="30" as="geometry" />
        </mxCell>
        <mxCell id="aZRdA0g6S1LYIyoUrLUo-471" value="&lt;span style=&quot;font-size: 25px;&quot;&gt;Pipe_reg&lt;/span&gt;&lt;div&gt;&lt;span style=&quot;font-size: 25px;&quot;&gt;&lt;br&gt;&lt;/span&gt;&lt;/div&gt;&lt;div&gt;&lt;span style=&quot;font-size: 25px;&quot;&gt;1clk delay&lt;/span&gt;&lt;/div&gt;" style="rounded=0;whiteSpace=wrap;html=1;" parent="1" vertex="1">
          <mxGeometry x="-135.5" y="6641.02" width="102.5" height="527.96" as="geometry" />
        </mxCell>
        <mxCell id="aZRdA0g6S1LYIyoUrLUo-472" value="&lt;span&gt;MAG&lt;/span&gt;&lt;div&gt;&lt;br&gt;&lt;/div&gt;&lt;div&gt;1clk 소모&lt;/div&gt;" style="text;html=1;align=center;verticalAlign=middle;whiteSpace=wrap;rounded=0;fontSize=33;" parent="1" vertex="1">
          <mxGeometry x="-330.25" y="6844.400000000001" width="170" height="104" as="geometry" />
        </mxCell>
        <mxCell id="aZRdA0g6S1LYIyoUrLUo-487" value="" style="endArrow=classic;html=1;rounded=0;entryX=0.145;entryY=0.008;entryDx=0;entryDy=0;entryPerimeter=0;strokeWidth=6;fontSize=25;exitX=1.003;exitY=0.839;exitDx=0;exitDy=0;exitPerimeter=0;" parent="1" edge="1">
          <mxGeometry width="50" height="50" relative="1" as="geometry">
            <mxPoint x="1367.2849999999999" y="6219.879999999999" as="sourcePoint" />
            <mxPoint x="1745.8199999999997" y="6627.48" as="targetPoint" />
            <Array as="points">
              <mxPoint x="1746" y="6220" />
            </Array>
          </mxGeometry>
        </mxCell>
        <mxCell id="aZRdA0g6S1LYIyoUrLUo-519" value="" style="endArrow=classic;html=1;rounded=0;entryX=0;entryY=0.078;entryDx=0;entryDy=0;entryPerimeter=0;strokeWidth=6;fontSize=25;" parent="1" edge="1">
          <mxGeometry width="50" height="50" relative="1" as="geometry">
            <mxPoint x="-1186.5" y="6866.21" as="sourcePoint" />
            <mxPoint x="-427.5" y="6866.21" as="targetPoint" />
          </mxGeometry>
        </mxCell>
        <mxCell id="aZRdA0g6S1LYIyoUrLUo-520" value="&lt;font style=&quot;font-size: 40px;&quot;&gt;&lt;span style=&quot;background-color: rgb(255, 255, 255); font-family: Consolas, &amp;quot;Courier New&amp;quot;, monospace; white-space: pre; color: light-dark(rgb(0, 0, 0), rgb(255, 255, 255));&quot;&gt;data_in_Q_add&lt;/span&gt;[0:7][24:0]&lt;/font&gt;" style="text;html=1;align=center;verticalAlign=middle;whiteSpace=wrap;rounded=0;fontSize=25;" parent="1" vertex="1">
          <mxGeometry x="-1195" y="6806.21" width="592" height="30" as="geometry" />
        </mxCell>
        <mxCell id="aZRdA0g6S1LYIyoUrLUo-521" value="" style="endArrow=classic;html=1;rounded=0;entryX=0;entryY=0.078;entryDx=0;entryDy=0;entryPerimeter=0;strokeWidth=6;fontSize=25;" parent="1" edge="1">
          <mxGeometry width="50" height="50" relative="1" as="geometry">
            <mxPoint x="-1186.5" y="6986.21" as="sourcePoint" />
            <mxPoint x="-427.5" y="6986.21" as="targetPoint" />
          </mxGeometry>
        </mxCell>
        <mxCell id="aZRdA0g6S1LYIyoUrLUo-522" value="&lt;font style=&quot;font-size: 40px;&quot;&gt;&lt;span style=&quot;background-color: rgb(255, 255, 255); font-family: Consolas, &amp;quot;Courier New&amp;quot;, monospace; white-space: pre; color: light-dark(rgb(0, 0, 0), rgb(255, 255, 255));&quot;&gt;data_in_R_sub&lt;/span&gt;[0:7][24:0]&lt;/font&gt;" style="text;html=1;align=center;verticalAlign=middle;whiteSpace=wrap;rounded=0;fontSize=25;" parent="1" vertex="1">
          <mxGeometry x="-1195" y="6926.21" width="592" height="30" as="geometry" />
        </mxCell>
        <mxCell id="aZRdA0g6S1LYIyoUrLUo-523" value="" style="endArrow=classic;html=1;rounded=0;entryX=0;entryY=0.078;entryDx=0;entryDy=0;entryPerimeter=0;strokeWidth=6;fontSize=25;" parent="1" edge="1">
          <mxGeometry width="50" height="50" relative="1" as="geometry">
            <mxPoint x="-1186.5" y="7106.21" as="sourcePoint" />
            <mxPoint x="-427.5" y="7106.21" as="targetPoint" />
          </mxGeometry>
        </mxCell>
        <mxCell id="aZRdA0g6S1LYIyoUrLUo-524" value="&lt;font style=&quot;font-size: 40px;&quot;&gt;&lt;span style=&quot;background-color: rgb(255, 255, 255); font-family: Consolas, &amp;quot;Courier New&amp;quot;, monospace; white-space: pre; color: light-dark(rgb(0, 0, 0), rgb(255, 255, 255));&quot;&gt;data_in_Q_add&lt;/span&gt;[0:7][24:0]&lt;/font&gt;" style="text;html=1;align=center;verticalAlign=middle;whiteSpace=wrap;rounded=0;fontSize=25;" parent="1" vertex="1">
          <mxGeometry x="-1195" y="7046.21" width="592" height="30" as="geometry" />
        </mxCell>
        <mxCell id="aZRdA0g6S1LYIyoUrLUo-525" value="" style="endArrow=classic;html=1;rounded=0;exitX=1.013;exitY=0.178;exitDx=0;exitDy=0;exitPerimeter=0;strokeWidth=6;" parent="1" edge="1">
          <mxGeometry width="50" height="50" relative="1" as="geometry">
            <mxPoint x="-4.25" y="6826.97" as="sourcePoint" />
            <mxPoint x="95.75" y="6827.64" as="targetPoint" />
          </mxGeometry>
        </mxCell>
        <mxCell id="aZRdA0g6S1LYIyoUrLUo-526" value="&lt;font style=&quot;font-size: 22px;&quot;&gt;8&lt;/font&gt;" style="text;html=1;align=center;verticalAlign=middle;whiteSpace=wrap;rounded=0;" parent="1" vertex="1">
          <mxGeometry x="16.75" y="6790.000000000001" width="58" height="30" as="geometry" />
        </mxCell>
        <mxCell id="aZRdA0g6S1LYIyoUrLUo-527" value="" style="endArrow=classic;html=1;rounded=0;exitX=1.013;exitY=0.178;exitDx=0;exitDy=0;exitPerimeter=0;strokeWidth=6;" parent="1" edge="1">
          <mxGeometry width="50" height="50" relative="1" as="geometry">
            <mxPoint x="-4.25" y="7005.97" as="sourcePoint" />
            <mxPoint x="95.75" y="7006.64" as="targetPoint" />
          </mxGeometry>
        </mxCell>
        <mxCell id="aZRdA0g6S1LYIyoUrLUo-528" value="&lt;font style=&quot;font-size: 22px;&quot;&gt;8&lt;/font&gt;" style="text;html=1;align=center;verticalAlign=middle;whiteSpace=wrap;rounded=0;" parent="1" vertex="1">
          <mxGeometry x="16.75" y="6969.000000000001" width="58" height="30" as="geometry" />
        </mxCell>
        <mxCell id="aZRdA0g6S1LYIyoUrLUo-529" value="" style="endArrow=classic;html=1;rounded=0;exitX=1.013;exitY=0.178;exitDx=0;exitDy=0;exitPerimeter=0;strokeWidth=6;" parent="1" edge="1">
          <mxGeometry width="50" height="50" relative="1" as="geometry">
            <mxPoint x="-5.5" y="7177.5" as="sourcePoint" />
            <mxPoint x="94.5" y="7178.17" as="targetPoint" />
          </mxGeometry>
        </mxCell>
        <mxCell id="aZRdA0g6S1LYIyoUrLUo-530" value="&lt;font style=&quot;font-size: 22px;&quot;&gt;8&lt;/font&gt;" style="text;html=1;align=center;verticalAlign=middle;whiteSpace=wrap;rounded=0;" parent="1" vertex="1">
          <mxGeometry x="15.5" y="7140.530000000001" width="58" height="30" as="geometry" />
        </mxCell>
        <mxCell id="aZRdA0g6S1LYIyoUrLUo-569" value="" style="rounded=0;whiteSpace=wrap;html=1;" parent="1" vertex="1">
          <mxGeometry x="135.75" y="6555" width="900" height="180" as="geometry" />
        </mxCell>
        <mxCell id="aZRdA0g6S1LYIyoUrLUo-442" value="min_2in" style="whiteSpace=wrap;html=1;aspect=fixed;fontSize=25;" parent="1" vertex="1">
          <mxGeometry x="181.75" y="6585" width="130" height="130" as="geometry" />
        </mxCell>
        <mxCell id="aZRdA0g6S1LYIyoUrLUo-534" value="" style="endArrow=classic;html=1;rounded=0;exitX=1.013;exitY=0.178;exitDx=0;exitDy=0;exitPerimeter=0;strokeWidth=6;" parent="1" edge="1">
          <mxGeometry width="50" height="50" relative="1" as="geometry">
            <mxPoint x="315.75" y="6641.97" as="sourcePoint" />
            <mxPoint x="415.75" y="6642.64" as="targetPoint" />
          </mxGeometry>
        </mxCell>
        <mxCell id="aZRdA0g6S1LYIyoUrLUo-535" value="&lt;font style=&quot;font-size: 22px;&quot;&gt;4&lt;/font&gt;" style="text;html=1;align=center;verticalAlign=middle;whiteSpace=wrap;rounded=0;" parent="1" vertex="1">
          <mxGeometry x="336.75" y="6605.000000000001" width="58" height="30" as="geometry" />
        </mxCell>
        <mxCell id="aZRdA0g6S1LYIyoUrLUo-548" value="min_2in" style="whiteSpace=wrap;html=1;aspect=fixed;fontSize=25;" parent="1" vertex="1">
          <mxGeometry x="415.75" y="6585" width="130" height="130" as="geometry" />
        </mxCell>
        <mxCell id="aZRdA0g6S1LYIyoUrLUo-557" value="" style="endArrow=classic;html=1;rounded=0;exitX=1.013;exitY=0.178;exitDx=0;exitDy=0;exitPerimeter=0;strokeWidth=6;" parent="1" edge="1">
          <mxGeometry width="50" height="50" relative="1" as="geometry">
            <mxPoint x="775.75" y="6641.97" as="sourcePoint" />
            <mxPoint x="875.75" y="6642.64" as="targetPoint" />
          </mxGeometry>
        </mxCell>
        <mxCell id="aZRdA0g6S1LYIyoUrLUo-558" value="&lt;font style=&quot;font-size: 22px;&quot;&gt;2&lt;/font&gt;" style="text;html=1;align=center;verticalAlign=middle;whiteSpace=wrap;rounded=0;" parent="1" vertex="1">
          <mxGeometry x="796.75" y="6605.000000000001" width="58" height="30" as="geometry" />
        </mxCell>
        <mxCell id="aZRdA0g6S1LYIyoUrLUo-559" value="min_2in" style="whiteSpace=wrap;html=1;aspect=fixed;fontSize=25;" parent="1" vertex="1">
          <mxGeometry x="875.75" y="6585" width="130" height="130" as="geometry" />
        </mxCell>
        <mxCell id="aZRdA0g6S1LYIyoUrLUo-572" value="" style="rounded=0;whiteSpace=wrap;html=1;" parent="1" vertex="1">
          <mxGeometry x="135.75" y="6733" width="900" height="180" as="geometry" />
        </mxCell>
        <mxCell id="aZRdA0g6S1LYIyoUrLUo-536" value="" style="endArrow=classic;html=1;rounded=0;exitX=1.013;exitY=0.178;exitDx=0;exitDy=0;exitPerimeter=0;strokeWidth=6;" parent="1" edge="1">
          <mxGeometry width="50" height="50" relative="1" as="geometry">
            <mxPoint x="315.75" y="6821.97" as="sourcePoint" />
            <mxPoint x="415.75" y="6822.64" as="targetPoint" />
          </mxGeometry>
        </mxCell>
        <mxCell id="aZRdA0g6S1LYIyoUrLUo-537" value="&lt;font style=&quot;font-size: 22px;&quot;&gt;4&lt;/font&gt;" style="text;html=1;align=center;verticalAlign=middle;whiteSpace=wrap;rounded=0;" parent="1" vertex="1">
          <mxGeometry x="336.75" y="6785.000000000001" width="58" height="30" as="geometry" />
        </mxCell>
        <mxCell id="aZRdA0g6S1LYIyoUrLUo-542" value="min_2in" style="whiteSpace=wrap;html=1;aspect=fixed;fontSize=25;" parent="1" vertex="1">
          <mxGeometry x="181.75" y="6755" width="130" height="130" as="geometry" />
        </mxCell>
        <mxCell id="aZRdA0g6S1LYIyoUrLUo-547" value="min_2in" style="whiteSpace=wrap;html=1;aspect=fixed;fontSize=25;" parent="1" vertex="1">
          <mxGeometry x="415.75" y="6755" width="130" height="130" as="geometry" />
        </mxCell>
        <mxCell id="aZRdA0g6S1LYIyoUrLUo-560" value="" style="endArrow=classic;html=1;rounded=0;exitX=1.013;exitY=0.178;exitDx=0;exitDy=0;exitPerimeter=0;strokeWidth=6;" parent="1" edge="1">
          <mxGeometry width="50" height="50" relative="1" as="geometry">
            <mxPoint x="775.75" y="6818.01" as="sourcePoint" />
            <mxPoint x="875.75" y="6818.68" as="targetPoint" />
          </mxGeometry>
        </mxCell>
        <mxCell id="aZRdA0g6S1LYIyoUrLUo-561" value="&lt;font style=&quot;font-size: 22px;&quot;&gt;2&lt;/font&gt;" style="text;html=1;align=center;verticalAlign=middle;whiteSpace=wrap;rounded=0;" parent="1" vertex="1">
          <mxGeometry x="796.75" y="6781.040000000001" width="58" height="30" as="geometry" />
        </mxCell>
        <mxCell id="aZRdA0g6S1LYIyoUrLUo-562" value="min_2in" style="whiteSpace=wrap;html=1;aspect=fixed;fontSize=25;" parent="1" vertex="1">
          <mxGeometry x="875.75" y="6755" width="130" height="130" as="geometry" />
        </mxCell>
        <mxCell id="aZRdA0g6S1LYIyoUrLUo-573" value="" style="rounded=0;whiteSpace=wrap;html=1;" parent="1" vertex="1">
          <mxGeometry x="135.75" y="6910" width="900" height="180" as="geometry" />
        </mxCell>
        <mxCell id="aZRdA0g6S1LYIyoUrLUo-574" value="" style="rounded=0;whiteSpace=wrap;html=1;" parent="1" vertex="1">
          <mxGeometry x="135.75" y="7090" width="900" height="180" as="geometry" />
        </mxCell>
        <mxCell id="aZRdA0g6S1LYIyoUrLUo-538" value="" style="endArrow=classic;html=1;rounded=0;exitX=1.013;exitY=0.178;exitDx=0;exitDy=0;exitPerimeter=0;strokeWidth=6;" parent="1" edge="1">
          <mxGeometry width="50" height="50" relative="1" as="geometry">
            <mxPoint x="313.75" y="7000.969999999999" as="sourcePoint" />
            <mxPoint x="413.75" y="7001.639999999999" as="targetPoint" />
          </mxGeometry>
        </mxCell>
        <mxCell id="aZRdA0g6S1LYIyoUrLUo-539" value="&lt;font style=&quot;font-size: 22px;&quot;&gt;4&lt;/font&gt;" style="text;html=1;align=center;verticalAlign=middle;whiteSpace=wrap;rounded=0;" parent="1" vertex="1">
          <mxGeometry x="334.75" y="6964" width="58" height="30" as="geometry" />
        </mxCell>
        <mxCell id="aZRdA0g6S1LYIyoUrLUo-540" value="" style="endArrow=classic;html=1;rounded=0;exitX=1.013;exitY=0.178;exitDx=0;exitDy=0;exitPerimeter=0;strokeWidth=6;" parent="1" edge="1">
          <mxGeometry width="50" height="50" relative="1" as="geometry">
            <mxPoint x="313.75" y="7171.969999999999" as="sourcePoint" />
            <mxPoint x="413.75" y="7172.639999999999" as="targetPoint" />
          </mxGeometry>
        </mxCell>
        <mxCell id="aZRdA0g6S1LYIyoUrLUo-541" value="&lt;span style=&quot;font-size: 22px;&quot;&gt;4&lt;/span&gt;" style="text;html=1;align=center;verticalAlign=middle;whiteSpace=wrap;rounded=0;" parent="1" vertex="1">
          <mxGeometry x="334.75" y="7135" width="58" height="30" as="geometry" />
        </mxCell>
        <mxCell id="aZRdA0g6S1LYIyoUrLUo-543" value="min_2in" style="whiteSpace=wrap;html=1;aspect=fixed;fontSize=25;" parent="1" vertex="1">
          <mxGeometry x="181.75" y="7105" width="130" height="130" as="geometry" />
        </mxCell>
        <mxCell id="aZRdA0g6S1LYIyoUrLUo-544" value="min_2in" style="whiteSpace=wrap;html=1;aspect=fixed;fontSize=25;" parent="1" vertex="1">
          <mxGeometry x="181.75" y="6935" width="130" height="130" as="geometry" />
        </mxCell>
        <mxCell id="aZRdA0g6S1LYIyoUrLUo-545" value="min_2in" style="whiteSpace=wrap;html=1;aspect=fixed;fontSize=25;" parent="1" vertex="1">
          <mxGeometry x="415.75" y="7105" width="130" height="130" as="geometry" />
        </mxCell>
        <mxCell id="aZRdA0g6S1LYIyoUrLUo-546" value="min_2in" style="whiteSpace=wrap;html=1;aspect=fixed;fontSize=25;" parent="1" vertex="1">
          <mxGeometry x="415.75" y="6935" width="130" height="130" as="geometry" />
        </mxCell>
        <mxCell id="aZRdA0g6S1LYIyoUrLUo-563" value="" style="endArrow=classic;html=1;rounded=0;exitX=1.013;exitY=0.178;exitDx=0;exitDy=0;exitPerimeter=0;strokeWidth=6;" parent="1" edge="1">
          <mxGeometry width="50" height="50" relative="1" as="geometry">
            <mxPoint x="775.75" y="6998.01" as="sourcePoint" />
            <mxPoint x="875.75" y="6998.68" as="targetPoint" />
          </mxGeometry>
        </mxCell>
        <mxCell id="aZRdA0g6S1LYIyoUrLUo-564" value="&lt;font style=&quot;font-size: 22px;&quot;&gt;2&lt;/font&gt;" style="text;html=1;align=center;verticalAlign=middle;whiteSpace=wrap;rounded=0;" parent="1" vertex="1">
          <mxGeometry x="796.75" y="6961.040000000001" width="58" height="30" as="geometry" />
        </mxCell>
        <mxCell id="aZRdA0g6S1LYIyoUrLUo-565" value="min_2in" style="whiteSpace=wrap;html=1;aspect=fixed;fontSize=25;" parent="1" vertex="1">
          <mxGeometry x="875.75" y="6935" width="130" height="130" as="geometry" />
        </mxCell>
        <mxCell id="aZRdA0g6S1LYIyoUrLUo-566" value="" style="endArrow=classic;html=1;rounded=0;exitX=1.013;exitY=0.178;exitDx=0;exitDy=0;exitPerimeter=0;strokeWidth=6;" parent="1" edge="1">
          <mxGeometry width="50" height="50" relative="1" as="geometry">
            <mxPoint x="775.75" y="7168.01" as="sourcePoint" />
            <mxPoint x="875.75" y="7168.68" as="targetPoint" />
          </mxGeometry>
        </mxCell>
        <mxCell id="aZRdA0g6S1LYIyoUrLUo-567" value="&lt;font style=&quot;font-size: 22px;&quot;&gt;2&lt;/font&gt;" style="text;html=1;align=center;verticalAlign=middle;whiteSpace=wrap;rounded=0;" parent="1" vertex="1">
          <mxGeometry x="796.75" y="7131.040000000001" width="58" height="30" as="geometry" />
        </mxCell>
        <mxCell id="aZRdA0g6S1LYIyoUrLUo-568" value="min_2in" style="whiteSpace=wrap;html=1;aspect=fixed;fontSize=25;" parent="1" vertex="1">
          <mxGeometry x="875.75" y="7105" width="130" height="130" as="geometry" />
        </mxCell>
        <mxCell id="aZRdA0g6S1LYIyoUrLUo-575" value="" style="endArrow=classic;html=1;rounded=0;exitX=1.013;exitY=0.178;exitDx=0;exitDy=0;exitPerimeter=0;strokeWidth=6;" parent="1" edge="1">
          <mxGeometry width="50" height="50" relative="1" as="geometry">
            <mxPoint x="1035.75" y="6699.58" as="sourcePoint" />
            <mxPoint x="1135.75" y="6700.25" as="targetPoint" />
          </mxGeometry>
        </mxCell>
        <mxCell id="aZRdA0g6S1LYIyoUrLUo-576" value="" style="endArrow=classic;html=1;rounded=0;exitX=1.013;exitY=0.178;exitDx=0;exitDy=0;exitPerimeter=0;strokeWidth=6;" parent="1" edge="1">
          <mxGeometry width="50" height="50" relative="1" as="geometry">
            <mxPoint x="1035.75" y="6765" as="sourcePoint" />
            <mxPoint x="1135.75" y="6765.67" as="targetPoint" />
          </mxGeometry>
        </mxCell>
        <mxCell id="aZRdA0g6S1LYIyoUrLUo-577" value="2_in_min[0]" style="whiteSpace=wrap;html=1;aspect=fixed;fontSize=25;" parent="1" vertex="1">
          <mxGeometry x="1135.75" y="7025" width="130" height="130" as="geometry" />
        </mxCell>
        <mxCell id="aZRdA0g6S1LYIyoUrLUo-578" value="" style="endArrow=classic;html=1;rounded=0;exitX=1.013;exitY=0.178;exitDx=0;exitDy=0;exitPerimeter=0;strokeWidth=6;" parent="1" edge="1">
          <mxGeometry width="50" height="50" relative="1" as="geometry">
            <mxPoint x="1035.75" y="7059.58" as="sourcePoint" />
            <mxPoint x="1135.75" y="7060.25" as="targetPoint" />
          </mxGeometry>
        </mxCell>
        <mxCell id="aZRdA0g6S1LYIyoUrLUo-579" value="" style="endArrow=classic;html=1;rounded=0;exitX=1.013;exitY=0.178;exitDx=0;exitDy=0;exitPerimeter=0;strokeWidth=6;" parent="1" edge="1">
          <mxGeometry width="50" height="50" relative="1" as="geometry">
            <mxPoint x="1035.75" y="7125" as="sourcePoint" />
            <mxPoint x="1135.75" y="7125.67" as="targetPoint" />
          </mxGeometry>
        </mxCell>
        <mxCell id="aZRdA0g6S1LYIyoUrLUo-454" value="&lt;span style=&quot;font-size: 25px;&quot;&gt;Pipe_reg&lt;/span&gt;&lt;div&gt;&lt;span style=&quot;font-size: 25px;&quot;&gt;&lt;br&gt;&lt;/span&gt;&lt;/div&gt;&lt;div&gt;&lt;span style=&quot;font-size: 25px;&quot;&gt;1clk delay&lt;/span&gt;&lt;/div&gt;" style="rounded=0;whiteSpace=wrap;html=1;" parent="1" vertex="1">
          <mxGeometry x="645.75" y="7105" width="130" height="130" as="geometry" />
        </mxCell>
        <mxCell id="aZRdA0g6S1LYIyoUrLUo-580" value="" style="endArrow=classic;html=1;rounded=0;exitX=1.013;exitY=0.178;exitDx=0;exitDy=0;exitPerimeter=0;strokeWidth=6;" parent="1" edge="1">
          <mxGeometry width="50" height="50" relative="1" as="geometry">
            <mxPoint x="545.75" y="7168.01" as="sourcePoint" />
            <mxPoint x="645.75" y="7168.68" as="targetPoint" />
          </mxGeometry>
        </mxCell>
        <mxCell id="aZRdA0g6S1LYIyoUrLUo-581" value="&lt;font style=&quot;font-size: 22px;&quot;&gt;2&lt;/font&gt;" style="text;html=1;align=center;verticalAlign=middle;whiteSpace=wrap;rounded=0;" parent="1" vertex="1">
          <mxGeometry x="566.75" y="7131.040000000001" width="58" height="30" as="geometry" />
        </mxCell>
        <mxCell id="aZRdA0g6S1LYIyoUrLUo-582" value="&lt;span style=&quot;font-size: 25px;&quot;&gt;Pipe_reg&lt;/span&gt;&lt;div&gt;&lt;span style=&quot;font-size: 25px;&quot;&gt;&lt;br&gt;&lt;/span&gt;&lt;/div&gt;&lt;div&gt;&lt;span style=&quot;font-size: 25px;&quot;&gt;1clk delay&lt;/span&gt;&lt;/div&gt;" style="rounded=0;whiteSpace=wrap;html=1;" parent="1" vertex="1">
          <mxGeometry x="645.75" y="6935" width="130" height="130" as="geometry" />
        </mxCell>
        <mxCell id="aZRdA0g6S1LYIyoUrLUo-583" value="" style="endArrow=classic;html=1;rounded=0;exitX=1.013;exitY=0.178;exitDx=0;exitDy=0;exitPerimeter=0;strokeWidth=6;" parent="1" edge="1">
          <mxGeometry width="50" height="50" relative="1" as="geometry">
            <mxPoint x="545.75" y="6998.01" as="sourcePoint" />
            <mxPoint x="645.75" y="6998.68" as="targetPoint" />
          </mxGeometry>
        </mxCell>
        <mxCell id="aZRdA0g6S1LYIyoUrLUo-584" value="&lt;font style=&quot;font-size: 22px;&quot;&gt;2&lt;/font&gt;" style="text;html=1;align=center;verticalAlign=middle;whiteSpace=wrap;rounded=0;" parent="1" vertex="1">
          <mxGeometry x="566.75" y="6961.040000000001" width="58" height="30" as="geometry" />
        </mxCell>
        <mxCell id="aZRdA0g6S1LYIyoUrLUo-585" value="&lt;span style=&quot;font-size: 25px;&quot;&gt;Pipe_reg&lt;/span&gt;&lt;div&gt;&lt;span style=&quot;font-size: 25px;&quot;&gt;&lt;br&gt;&lt;/span&gt;&lt;/div&gt;&lt;div&gt;&lt;span style=&quot;font-size: 25px;&quot;&gt;1clk delay&lt;/span&gt;&lt;/div&gt;" style="rounded=0;whiteSpace=wrap;html=1;" parent="1" vertex="1">
          <mxGeometry x="645.75" y="6585" width="130" height="130" as="geometry" />
        </mxCell>
        <mxCell id="aZRdA0g6S1LYIyoUrLUo-586" value="" style="endArrow=classic;html=1;rounded=0;exitX=1.013;exitY=0.178;exitDx=0;exitDy=0;exitPerimeter=0;strokeWidth=6;" parent="1" edge="1">
          <mxGeometry width="50" height="50" relative="1" as="geometry">
            <mxPoint x="545.75" y="6648.01" as="sourcePoint" />
            <mxPoint x="645.75" y="6648.68" as="targetPoint" />
          </mxGeometry>
        </mxCell>
        <mxCell id="aZRdA0g6S1LYIyoUrLUo-587" value="&lt;font style=&quot;font-size: 22px;&quot;&gt;2&lt;/font&gt;" style="text;html=1;align=center;verticalAlign=middle;whiteSpace=wrap;rounded=0;" parent="1" vertex="1">
          <mxGeometry x="566.75" y="6611.040000000001" width="58" height="30" as="geometry" />
        </mxCell>
        <mxCell id="aZRdA0g6S1LYIyoUrLUo-588" value="&lt;span style=&quot;font-size: 25px;&quot;&gt;Pipe_reg&lt;/span&gt;&lt;div&gt;&lt;span style=&quot;font-size: 25px;&quot;&gt;&lt;br&gt;&lt;/span&gt;&lt;/div&gt;&lt;div&gt;&lt;span style=&quot;font-size: 25px;&quot;&gt;1clk delay&lt;/span&gt;&lt;/div&gt;" style="rounded=0;whiteSpace=wrap;html=1;" parent="1" vertex="1">
          <mxGeometry x="645.75" y="6755" width="130" height="130" as="geometry" />
        </mxCell>
        <mxCell id="aZRdA0g6S1LYIyoUrLUo-589" value="" style="endArrow=classic;html=1;rounded=0;exitX=1.013;exitY=0.178;exitDx=0;exitDy=0;exitPerimeter=0;strokeWidth=6;" parent="1" edge="1">
          <mxGeometry width="50" height="50" relative="1" as="geometry">
            <mxPoint x="545.75" y="6818.01" as="sourcePoint" />
            <mxPoint x="645.75" y="6818.68" as="targetPoint" />
          </mxGeometry>
        </mxCell>
        <mxCell id="aZRdA0g6S1LYIyoUrLUo-590" value="&lt;font style=&quot;font-size: 22px;&quot;&gt;2&lt;/font&gt;" style="text;html=1;align=center;verticalAlign=middle;whiteSpace=wrap;rounded=0;" parent="1" vertex="1">
          <mxGeometry x="566.75" y="6781.040000000001" width="58" height="30" as="geometry" />
        </mxCell>
        <mxCell id="aZRdA0g6S1LYIyoUrLUo-591" value="" style="endArrow=classic;html=1;rounded=0;exitX=1.013;exitY=0.178;exitDx=0;exitDy=0;exitPerimeter=0;strokeWidth=6;" parent="1" edge="1">
          <mxGeometry width="50" height="50" relative="1" as="geometry">
            <mxPoint x="1265.75" y="7088.01" as="sourcePoint" />
            <mxPoint x="1365.75" y="7088.68" as="targetPoint" />
          </mxGeometry>
        </mxCell>
        <mxCell id="aZRdA0g6S1LYIyoUrLUo-593" value="&lt;span style=&quot;font-size: 25px;&quot;&gt;Pipe_reg&lt;/span&gt;&lt;div&gt;&lt;span style=&quot;font-size: 25px;&quot;&gt;&lt;br&gt;&lt;/span&gt;&lt;/div&gt;&lt;div&gt;&lt;span style=&quot;font-size: 25px;&quot;&gt;1clk delay&lt;/span&gt;&lt;/div&gt;" style="rounded=0;whiteSpace=wrap;html=1;" parent="1" vertex="1">
          <mxGeometry x="1365.75" y="7025" width="130" height="130" as="geometry" />
        </mxCell>
        <mxCell id="aZRdA0g6S1LYIyoUrLUo-594" value="&lt;span style=&quot;font-size: 25px;&quot;&gt;Pipe_reg&lt;/span&gt;&lt;div&gt;&lt;span style=&quot;font-size: 25px;&quot;&gt;&lt;br&gt;&lt;/span&gt;&lt;/div&gt;&lt;div&gt;&lt;span style=&quot;font-size: 25px;&quot;&gt;1clk delay&lt;/span&gt;&lt;/div&gt;" style="rounded=0;whiteSpace=wrap;html=1;" parent="1" vertex="1">
          <mxGeometry x="1365.75" y="6665" width="130" height="130" as="geometry" />
        </mxCell>
        <mxCell id="aZRdA0g6S1LYIyoUrLUo-595" value="" style="endArrow=classic;html=1;rounded=0;exitX=1.013;exitY=0.178;exitDx=0;exitDy=0;exitPerimeter=0;strokeWidth=6;" parent="1" edge="1">
          <mxGeometry width="50" height="50" relative="1" as="geometry">
            <mxPoint x="1265.75" y="6728.01" as="sourcePoint" />
            <mxPoint x="1365.75" y="6728.68" as="targetPoint" />
          </mxGeometry>
        </mxCell>
        <mxCell id="aZRdA0g6S1LYIyoUrLUo-598" value="" style="endArrow=classic;html=1;rounded=0;exitX=1;exitY=0.5;exitDx=0;exitDy=0;strokeWidth=6;entryX=0.015;entryY=0.486;entryDx=0;entryDy=0;entryPerimeter=0;" parent="1" source="aZRdA0g6S1LYIyoUrLUo-594" edge="1">
          <mxGeometry width="50" height="50" relative="1" as="geometry">
            <mxPoint x="1535" y="6732.05" as="sourcePoint" />
            <mxPoint x="1669" y="6732.250000000001" as="targetPoint" />
          </mxGeometry>
        </mxCell>
        <mxCell id="aZRdA0g6S1LYIyoUrLUo-599" value="&lt;font style=&quot;font-size: 28px;&quot;&gt;scaling-factor&lt;/font&gt;" style="text;html=1;align=center;verticalAlign=middle;whiteSpace=wrap;rounded=0;" parent="1" vertex="1">
          <mxGeometry x="1565" y="6659.05" width="60" height="30" as="geometry" />
        </mxCell>
        <mxCell id="aZRdA0g6S1LYIyoUrLUo-600" value="BIT_SHIFT" style="rounded=0;whiteSpace=wrap;html=1;fontSize=33;" parent="1" vertex="1">
          <mxGeometry x="1669" y="6625" width="516" height="560" as="geometry" />
        </mxCell>
        <mxCell id="aZRdA0g6S1LYIyoUrLUo-601" value="" style="endArrow=classic;html=1;rounded=0;exitX=1;exitY=0.5;exitDx=0;exitDy=0;strokeWidth=6;entryX=0.015;entryY=0.486;entryDx=0;entryDy=0;entryPerimeter=0;" parent="1" edge="1">
          <mxGeometry width="50" height="50" relative="1" as="geometry">
            <mxPoint x="1496" y="7095.5599999999995" as="sourcePoint" />
            <mxPoint x="1669" y="7097.81" as="targetPoint" />
          </mxGeometry>
        </mxCell>
        <mxCell id="aZRdA0g6S1LYIyoUrLUo-602" value="&lt;font style=&quot;font-size: 28px;&quot;&gt;scaling-factor&lt;/font&gt;" style="text;html=1;align=center;verticalAlign=middle;whiteSpace=wrap;rounded=0;" parent="1" vertex="1">
          <mxGeometry x="1565" y="7024.61" width="60" height="30" as="geometry" />
        </mxCell>
        <mxCell id="aZRdA0g6S1LYIyoUrLUo-603" value="" style="edgeStyle=segmentEdgeStyle;endArrow=classic;html=1;curved=0;rounded=0;endSize=8;startSize=8;entryX=-0.002;entryY=0.185;entryDx=0;entryDy=0;entryPerimeter=0;strokeWidth=6;" parent="1" source="aZRdA0g6S1LYIyoUrLUo-604" target="aZRdA0g6S1LYIyoUrLUo-432" edge="1">
          <mxGeometry width="50" height="50" relative="1" as="geometry">
            <mxPoint x="-627" y="6730" as="sourcePoint" />
            <mxPoint x="-457" y="6270" as="targetPoint" />
            <Array as="points">
              <mxPoint x="-627" y="5620" />
            </Array>
          </mxGeometry>
        </mxCell>
        <mxCell id="aZRdA0g6S1LYIyoUrLUo-604" value="" style="shape=waypoint;sketch=0;fillStyle=solid;size=6;pointerEvents=1;points=[];fillColor=none;resizable=0;rotatable=0;perimeter=centerPerimeter;snapToPoint=1;strokeWidth=7;" parent="1" vertex="1">
          <mxGeometry x="-635" y="6715" width="20" height="20" as="geometry" />
        </mxCell>
        <mxCell id="aZRdA0g6S1LYIyoUrLUo-607" value="" style="edgeStyle=segmentEdgeStyle;endArrow=classic;html=1;curved=0;rounded=0;endSize=8;startSize=8;strokeWidth=6;" parent="1" source="aZRdA0g6S1LYIyoUrLUo-608" edge="1">
          <mxGeometry width="50" height="50" relative="1" as="geometry">
            <mxPoint x="-585" y="6870" as="sourcePoint" />
            <mxPoint x="265" y="5820" as="targetPoint" />
            <Array as="points">
              <mxPoint x="-583" y="5820" />
            </Array>
          </mxGeometry>
        </mxCell>
        <mxCell id="aZRdA0g6S1LYIyoUrLUo-608" value="" style="shape=waypoint;sketch=0;fillStyle=solid;size=6;pointerEvents=1;points=[];fillColor=none;resizable=0;rotatable=0;perimeter=centerPerimeter;snapToPoint=1;strokeWidth=7;" parent="1" vertex="1">
          <mxGeometry x="-593" y="6855" width="20" height="20" as="geometry" />
        </mxCell>
        <mxCell id="aZRdA0g6S1LYIyoUrLUo-609" value="" style="edgeStyle=segmentEdgeStyle;endArrow=classic;html=1;curved=0;rounded=0;endSize=8;startSize=8;strokeWidth=6;" parent="1" source="aZRdA0g6S1LYIyoUrLUo-610" edge="1">
          <mxGeometry width="50" height="50" relative="1" as="geometry">
            <mxPoint x="-547" y="6989" as="sourcePoint" />
            <mxPoint x="265" y="6020" as="targetPoint" />
            <Array as="points">
              <mxPoint x="-545" y="6020" />
              <mxPoint x="265" y="6020" />
            </Array>
          </mxGeometry>
        </mxCell>
        <mxCell id="aZRdA0g6S1LYIyoUrLUo-610" value="" style="shape=waypoint;sketch=0;fillStyle=solid;size=6;pointerEvents=1;points=[];fillColor=none;resizable=0;rotatable=0;perimeter=centerPerimeter;snapToPoint=1;strokeWidth=7;" parent="1" vertex="1">
          <mxGeometry x="-555" y="6974" width="20" height="20" as="geometry" />
        </mxCell>
        <mxCell id="aZRdA0g6S1LYIyoUrLUo-611" value="" style="edgeStyle=segmentEdgeStyle;endArrow=classic;html=1;curved=0;rounded=0;endSize=8;startSize=8;strokeWidth=6;" parent="1" source="aZRdA0g6S1LYIyoUrLUo-612" edge="1">
          <mxGeometry width="50" height="50" relative="1" as="geometry">
            <mxPoint x="-507" y="7112.999999999999" as="sourcePoint" />
            <mxPoint x="265" y="6220" as="targetPoint" />
            <Array as="points">
              <mxPoint x="-505" y="6220" />
            </Array>
          </mxGeometry>
        </mxCell>
        <mxCell id="aZRdA0g6S1LYIyoUrLUo-612" value="" style="shape=waypoint;sketch=0;fillStyle=solid;size=6;pointerEvents=1;points=[];fillColor=none;resizable=0;rotatable=0;perimeter=centerPerimeter;snapToPoint=1;strokeWidth=7;" parent="1" vertex="1">
          <mxGeometry x="-515" y="7097.999999999999" width="20" height="20" as="geometry" />
        </mxCell>
        <mxCell id="aZRdA0g6S1LYIyoUrLUo-613" value="" style="endArrow=classic;html=1;rounded=0;entryX=0.378;entryY=0.007;entryDx=0;entryDy=0;entryPerimeter=0;strokeWidth=6;fontSize=25;exitX=1.003;exitY=0.839;exitDx=0;exitDy=0;exitPerimeter=0;" parent="1" target="aZRdA0g6S1LYIyoUrLUo-600" edge="1">
          <mxGeometry width="50" height="50" relative="1" as="geometry">
            <mxPoint x="1365.75" y="6027.4" as="sourcePoint" />
            <mxPoint x="1744.2849999999999" y="6435" as="targetPoint" />
            <Array as="points">
              <mxPoint x="1864" y="6028" />
            </Array>
          </mxGeometry>
        </mxCell>
        <mxCell id="aZRdA0g6S1LYIyoUrLUo-614" value="" style="endArrow=classic;html=1;rounded=0;entryX=0.632;entryY=0.002;entryDx=0;entryDy=0;entryPerimeter=0;strokeWidth=6;fontSize=25;exitX=1.003;exitY=0.839;exitDx=0;exitDy=0;exitPerimeter=0;" parent="1" target="aZRdA0g6S1LYIyoUrLUo-600" edge="1">
          <mxGeometry width="50" height="50" relative="1" as="geometry">
            <mxPoint x="1362" y="5820" as="sourcePoint" />
            <mxPoint x="1740.5349999999999" y="6227.6" as="targetPoint" />
            <Array as="points">
              <mxPoint x="1995" y="5820" />
            </Array>
          </mxGeometry>
        </mxCell>
        <mxCell id="aZRdA0g6S1LYIyoUrLUo-615" value="" style="endArrow=classic;html=1;rounded=0;entryX=0.871;entryY=0.002;entryDx=0;entryDy=0;entryPerimeter=0;strokeWidth=6;fontSize=25;exitX=1.001;exitY=0.182;exitDx=0;exitDy=0;exitPerimeter=0;" parent="1" source="aZRdA0g6S1LYIyoUrLUo-432" target="aZRdA0g6S1LYIyoUrLUo-600" edge="1">
          <mxGeometry width="50" height="50" relative="1" as="geometry">
            <mxPoint x="1365.75" y="5580" as="sourcePoint" />
            <mxPoint x="1744.2849999999999" y="5987.6" as="targetPoint" />
            <Array as="points">
              <mxPoint x="2118" y="5617" />
            </Array>
          </mxGeometry>
        </mxCell>
        <mxCell id="aZRdA0g6S1LYIyoUrLUo-618" value="&lt;font style=&quot;font-size: 40px;&quot;&gt;&lt;span style=&quot;background-color: rgb(255, 255, 255); font-family: Consolas, &amp;quot;Courier New&amp;quot;, monospace; white-space: pre; color: light-dark(rgb(0, 0, 0), rgb(255, 255, 255));&quot;&gt;data_out_R_add&lt;/span&gt;[0:7][11:0]&lt;/font&gt;" style="text;html=1;align=center;verticalAlign=middle;whiteSpace=wrap;rounded=0;fontSize=25;" parent="1" vertex="1">
          <mxGeometry x="2185" y="6666.21" width="592" height="30" as="geometry" />
        </mxCell>
        <mxCell id="aZRdA0g6S1LYIyoUrLUo-619" value="" style="endArrow=classic;html=1;rounded=0;strokeWidth=6;fontSize=25;" parent="1" edge="1">
          <mxGeometry width="50" height="50" relative="1" as="geometry">
            <mxPoint x="2193.5" y="6726.21" as="sourcePoint" />
            <mxPoint x="2775" y="6726" as="targetPoint" />
          </mxGeometry>
        </mxCell>
        <mxCell id="aZRdA0g6S1LYIyoUrLUo-620" value="&lt;font style=&quot;font-size: 40px;&quot;&gt;&lt;span style=&quot;background-color: rgb(255, 255, 255); font-family: Consolas, &amp;quot;Courier New&amp;quot;, monospace; white-space: pre; color: light-dark(rgb(0, 0, 0), rgb(255, 255, 255));&quot;&gt;data_out_Q_add&lt;/span&gt;[0:7][11:0]&lt;/font&gt;" style="text;html=1;align=center;verticalAlign=middle;whiteSpace=wrap;rounded=0;fontSize=25;" parent="1" vertex="1">
          <mxGeometry x="2185" y="6806.21" width="592" height="30" as="geometry" />
        </mxCell>
        <mxCell id="aZRdA0g6S1LYIyoUrLUo-621" value="" style="endArrow=classic;html=1;rounded=0;strokeWidth=6;fontSize=25;" parent="1" edge="1">
          <mxGeometry width="50" height="50" relative="1" as="geometry">
            <mxPoint x="2193.5" y="6866.21" as="sourcePoint" />
            <mxPoint x="2775" y="6866" as="targetPoint" />
          </mxGeometry>
        </mxCell>
        <mxCell id="aZRdA0g6S1LYIyoUrLUo-622" value="&lt;font style=&quot;font-size: 40px;&quot;&gt;&lt;span style=&quot;background-color: rgb(255, 255, 255); font-family: Consolas, &amp;quot;Courier New&amp;quot;, monospace; white-space: pre; color: light-dark(rgb(0, 0, 0), rgb(255, 255, 255));&quot;&gt;data_out_R_sub&lt;/span&gt;[0:7][11:0]&lt;/font&gt;" style="text;html=1;align=center;verticalAlign=middle;whiteSpace=wrap;rounded=0;fontSize=25;" parent="1" vertex="1">
          <mxGeometry x="2185" y="6926.21" width="592" height="30" as="geometry" />
        </mxCell>
        <mxCell id="aZRdA0g6S1LYIyoUrLUo-623" value="" style="endArrow=classic;html=1;rounded=0;strokeWidth=6;fontSize=25;" parent="1" edge="1">
          <mxGeometry width="50" height="50" relative="1" as="geometry">
            <mxPoint x="2193.5" y="6986.21" as="sourcePoint" />
            <mxPoint x="2775" y="6986" as="targetPoint" />
          </mxGeometry>
        </mxCell>
        <mxCell id="aZRdA0g6S1LYIyoUrLUo-624" value="&lt;font style=&quot;font-size: 40px;&quot;&gt;&lt;span style=&quot;background-color: rgb(255, 255, 255); font-family: Consolas, &amp;quot;Courier New&amp;quot;, monospace; white-space: pre; color: light-dark(rgb(0, 0, 0), rgb(255, 255, 255));&quot;&gt;data_out_Q_add&lt;/span&gt;[0:7][11:0]&lt;/font&gt;" style="text;html=1;align=center;verticalAlign=middle;whiteSpace=wrap;rounded=0;fontSize=25;" parent="1" vertex="1">
          <mxGeometry x="2185" y="7046.21" width="592" height="30" as="geometry" />
        </mxCell>
        <mxCell id="aZRdA0g6S1LYIyoUrLUo-625" value="" style="endArrow=classic;html=1;rounded=0;strokeWidth=6;fontSize=25;" parent="1" edge="1">
          <mxGeometry width="50" height="50" relative="1" as="geometry">
            <mxPoint x="2193.5" y="7106.21" as="sourcePoint" />
            <mxPoint x="2775" y="7106" as="targetPoint" />
          </mxGeometry>
        </mxCell>
        <mxCell id="G0KeurTFWzJhfIRalW9M-1" value="&lt;font style=&quot;font-size: 500px;&quot;&gt;CU&lt;/font&gt;" style="rounded=0;whiteSpace=wrap;html=1;" vertex="1" parent="1">
          <mxGeometry x="-1160" y="7550" width="3910" height="750" as="geometry" />
        </mxCell>
        <mxCell id="G0KeurTFWzJhfIRalW9M-2" value="" style="endArrow=classic;html=1;rounded=0;fontStyle=1;strokeWidth=11;" edge="1" parent="1">
          <mxGeometry width="50" height="50" relative="1" as="geometry">
            <mxPoint x="-1790" y="7920" as="sourcePoint" />
            <mxPoint x="-1160" y="7920" as="targetPoint" />
          </mxGeometry>
        </mxCell>
        <mxCell id="G0KeurTFWzJhfIRalW9M-3" value="&lt;b&gt;&lt;font style=&quot;font-size: 100px;&quot;&gt;alert_mod12&lt;/font&gt;&lt;/b&gt;" style="text;html=1;align=center;verticalAlign=middle;whiteSpace=wrap;rounded=0;" vertex="1" parent="1">
          <mxGeometry x="-1580" y="7740" width="250" height="100" as="geometry" />
        </mxCell>
        <mxCell id="G0KeurTFWzJhfIRalW9M-5" style="edgeStyle=orthogonalEdgeStyle;rounded=0;orthogonalLoop=1;jettySize=auto;html=1;exitX=0.25;exitY=0;exitDx=0;exitDy=0;entryX=0.573;entryY=0.999;entryDx=0;entryDy=0;entryPerimeter=0;" edge="1" parent="1" source="G0KeurTFWzJhfIRalW9M-1" target="aZRdA0g6S1LYIyoUrLUo-406">
          <mxGeometry relative="1" as="geometry" />
        </mxCell>
        <mxCell id="G0KeurTFWzJhfIRalW9M-8" value="" style="endArrow=classic;html=1;rounded=0;fontStyle=1;strokeWidth=11;" edge="1" parent="1">
          <mxGeometry width="50" height="50" relative="1" as="geometry">
            <mxPoint x="2760" y="7910" as="sourcePoint" />
            <mxPoint x="3390" y="7910" as="targetPoint" />
          </mxGeometry>
        </mxCell>
        <mxCell id="G0KeurTFWzJhfIRalW9M-9" value="&lt;b&gt;&lt;font style=&quot;font-size: 100px;&quot;&gt;alert_cbfp1&lt;/font&gt;&lt;/b&gt;" style="text;html=1;align=center;verticalAlign=middle;whiteSpace=wrap;rounded=0;" vertex="1" parent="1">
          <mxGeometry x="2830" y="7725" width="690" height="130" as="geometry" />
        </mxCell>
        <mxCell id="G0KeurTFWzJhfIRalW9M-10" style="edgeStyle=orthogonalEdgeStyle;rounded=0;orthogonalLoop=1;jettySize=auto;html=1;entryX=0.485;entryY=0.998;entryDx=0;entryDy=0;entryPerimeter=0;" edge="1" parent="1" source="G0KeurTFWzJhfIRalW9M-1" target="aZRdA0g6S1LYIyoUrLUo-407">
          <mxGeometry relative="1" as="geometry" />
        </mxCell>
        <mxCell id="G0KeurTFWzJhfIRalW9M-11" value="" style="shape=card;whiteSpace=wrap;html=1;" vertex="1" parent="1">
          <mxGeometry x="620" y="6990" width="80" height="100" as="geometry" />
        </mxCell>
        <mxCell id="G0KeurTFWzJhfIRalW9M-12" value="" style="rounded=0;whiteSpace=wrap;html=1;" vertex="1" parent="1">
          <mxGeometry x="-1135" y="8660" width="3895" height="2353.26" as="geometry" />
        </mxCell>
        <mxCell id="G0KeurTFWzJhfIRalW9M-13" value="" style="rounded=0;whiteSpace=wrap;html=1;fontSize=20;" vertex="1" parent="1">
          <mxGeometry x="-410.25" y="10150" width="424.75" height="590" as="geometry" />
        </mxCell>
        <mxCell id="G0KeurTFWzJhfIRalW9M-14" value="" style="rounded=0;whiteSpace=wrap;html=1;fontSize=33;" vertex="1" parent="1">
          <mxGeometry x="114.5" y="9975" width="1440" height="940" as="geometry" />
        </mxCell>
        <mxCell id="G0KeurTFWzJhfIRalW9M-15" value="" style="endArrow=classic;html=1;rounded=0;exitX=1.013;exitY=0.178;exitDx=0;exitDy=0;exitPerimeter=0;strokeWidth=6;" edge="1" parent="1">
          <mxGeometry width="50" height="50" relative="1" as="geometry">
            <mxPoint x="15.75" y="10186.970000000001" as="sourcePoint" />
            <mxPoint x="115.75" y="10187.64" as="targetPoint" />
          </mxGeometry>
        </mxCell>
        <mxCell id="G0KeurTFWzJhfIRalW9M-16" value="&lt;font style=&quot;font-size: 22px;&quot;&gt;8&lt;/font&gt;" style="text;html=1;align=center;verticalAlign=middle;whiteSpace=wrap;rounded=0;" vertex="1" parent="1">
          <mxGeometry x="36.75" y="10150" width="58" height="30" as="geometry" />
        </mxCell>
        <mxCell id="G0KeurTFWzJhfIRalW9M-17" value="&lt;font style=&quot;font-size: 50px;&quot;&gt;CBFP1&lt;/font&gt;" style="text;html=1;align=center;verticalAlign=middle;whiteSpace=wrap;rounded=0;" vertex="1" parent="1">
          <mxGeometry x="555" y="8700" width="650" height="160" as="geometry" />
        </mxCell>
        <mxCell id="G0KeurTFWzJhfIRalW9M-18" value="&lt;div style=&quot;text-align: start;&quot;&gt;&lt;span style=&quot;background-color: transparent; font-size: 0px; text-wrap-mode: nowrap;&quot;&gt;&lt;font face=&quot;monospace&quot; color=&quot;rgba(0, 0, 0, 0)&quot;&gt;IM&lt;/font&gt;&lt;/span&gt;&lt;/div&gt;" style="text;html=1;align=center;verticalAlign=middle;whiteSpace=wrap;rounded=0;" vertex="1" parent="1">
          <mxGeometry x="1231.75" y="10505" width="60" height="30" as="geometry" />
        </mxCell>
        <mxCell id="G0KeurTFWzJhfIRalW9M-19" value="&lt;div style=&quot;text-align: start;&quot;&gt;&lt;span style=&quot;background-color: transparent; font-size: 0px; text-wrap-mode: nowrap;&quot;&gt;&lt;font face=&quot;monospace&quot; color=&quot;rgba(0, 0, 0, 0)&quot;&gt;IM&lt;/font&gt;&lt;/span&gt;&lt;/div&gt;" style="text;html=1;align=center;verticalAlign=middle;whiteSpace=wrap;rounded=0;" vertex="1" parent="1">
          <mxGeometry x="1590.75" y="10507.96" width="60" height="30" as="geometry" />
        </mxCell>
        <mxCell id="G0KeurTFWzJhfIRalW9M-20" value="CBFP_SHIFT_REG_3CLK" style="rounded=0;whiteSpace=wrap;html=1;fontSize=33;" vertex="1" parent="1">
          <mxGeometry x="287" y="8990" width="1095" height="920" as="geometry" />
        </mxCell>
        <mxCell id="G0KeurTFWzJhfIRalW9M-21" value="2_in_min[0]" style="whiteSpace=wrap;html=1;aspect=fixed;fontSize=25;" vertex="1" parent="1">
          <mxGeometry x="1155.75" y="10205" width="130" height="130" as="geometry" />
        </mxCell>
        <mxCell id="G0KeurTFWzJhfIRalW9M-22" value="&lt;font style=&quot;font-size: 46px;&quot;&gt;4Stage: MIN 비교기_RE&lt;/font&gt;" style="text;html=1;align=center;verticalAlign=middle;whiteSpace=wrap;rounded=0;" vertex="1" parent="1">
          <mxGeometry x="375.75" y="9985" width="560" height="70" as="geometry" />
        </mxCell>
        <mxCell id="G0KeurTFWzJhfIRalW9M-23" value="" style="endArrow=classic;html=1;rounded=0;entryX=0;entryY=0.078;entryDx=0;entryDy=0;entryPerimeter=0;strokeWidth=6;fontSize=25;" edge="1" parent="1">
          <mxGeometry width="50" height="50" relative="1" as="geometry">
            <mxPoint x="-1166.5" y="10266.21" as="sourcePoint" />
            <mxPoint x="-407.5" y="10266.21" as="targetPoint" />
          </mxGeometry>
        </mxCell>
        <mxCell id="G0KeurTFWzJhfIRalW9M-24" value="&lt;font style=&quot;font-size: 40px;&quot;&gt;&lt;span style=&quot;background-color: rgb(255, 255, 255); font-family: Consolas, &amp;quot;Courier New&amp;quot;, monospace; white-space: pre; color: light-dark(rgb(0, 0, 0), rgb(255, 255, 255));&quot;&gt;data_in_R_add&lt;/span&gt;[0:7][24:0]&lt;/font&gt;" style="text;html=1;align=center;verticalAlign=middle;whiteSpace=wrap;rounded=0;fontSize=25;" vertex="1" parent="1">
          <mxGeometry x="-1260" y="10206.21" width="592" height="30" as="geometry" />
        </mxCell>
        <mxCell id="G0KeurTFWzJhfIRalW9M-25" value="&lt;span style=&quot;font-size: 25px;&quot;&gt;Pipe_reg&lt;/span&gt;&lt;div&gt;&lt;span style=&quot;font-size: 25px;&quot;&gt;&lt;br&gt;&lt;/span&gt;&lt;/div&gt;&lt;div&gt;&lt;span style=&quot;font-size: 25px;&quot;&gt;1clk delay&lt;/span&gt;&lt;/div&gt;" style="rounded=0;whiteSpace=wrap;html=1;" vertex="1" parent="1">
          <mxGeometry x="-115.5" y="10181.02" width="102.5" height="527.96" as="geometry" />
        </mxCell>
        <mxCell id="G0KeurTFWzJhfIRalW9M-26" value="&lt;span&gt;MAG&lt;/span&gt;&lt;div&gt;&lt;br&gt;&lt;/div&gt;&lt;div&gt;1clk 소모&lt;/div&gt;" style="text;html=1;align=center;verticalAlign=middle;whiteSpace=wrap;rounded=0;fontSize=33;" vertex="1" parent="1">
          <mxGeometry x="-310.25" y="10384.400000000001" width="170" height="104" as="geometry" />
        </mxCell>
        <mxCell id="G0KeurTFWzJhfIRalW9M-27" value="" style="endArrow=classic;html=1;rounded=0;entryX=0.145;entryY=0.008;entryDx=0;entryDy=0;entryPerimeter=0;strokeWidth=6;fontSize=25;exitX=1.003;exitY=0.839;exitDx=0;exitDy=0;exitPerimeter=0;" edge="1" parent="1">
          <mxGeometry width="50" height="50" relative="1" as="geometry">
            <mxPoint x="1387.2849999999999" y="9759.88" as="sourcePoint" />
            <mxPoint x="1765.8199999999997" y="10167.48" as="targetPoint" />
            <Array as="points">
              <mxPoint x="1766" y="9760" />
            </Array>
          </mxGeometry>
        </mxCell>
        <mxCell id="G0KeurTFWzJhfIRalW9M-28" value="" style="endArrow=classic;html=1;rounded=0;entryX=0;entryY=0.078;entryDx=0;entryDy=0;entryPerimeter=0;strokeWidth=6;fontSize=25;" edge="1" parent="1">
          <mxGeometry width="50" height="50" relative="1" as="geometry">
            <mxPoint x="-1166.5" y="10406.21" as="sourcePoint" />
            <mxPoint x="-407.5" y="10406.21" as="targetPoint" />
          </mxGeometry>
        </mxCell>
        <mxCell id="G0KeurTFWzJhfIRalW9M-29" value="&lt;font style=&quot;font-size: 40px;&quot;&gt;&lt;span style=&quot;background-color: rgb(255, 255, 255); font-family: Consolas, &amp;quot;Courier New&amp;quot;, monospace; white-space: pre; color: light-dark(rgb(0, 0, 0), rgb(255, 255, 255));&quot;&gt;data_in_Q_add&lt;/span&gt;[0:7][24:0]&lt;/font&gt;" style="text;html=1;align=center;verticalAlign=middle;whiteSpace=wrap;rounded=0;fontSize=25;" vertex="1" parent="1">
          <mxGeometry x="-1175" y="10346.21" width="592" height="30" as="geometry" />
        </mxCell>
        <mxCell id="G0KeurTFWzJhfIRalW9M-30" value="" style="endArrow=classic;html=1;rounded=0;entryX=0;entryY=0.078;entryDx=0;entryDy=0;entryPerimeter=0;strokeWidth=6;fontSize=25;" edge="1" parent="1">
          <mxGeometry width="50" height="50" relative="1" as="geometry">
            <mxPoint x="-1166.5" y="10526.21" as="sourcePoint" />
            <mxPoint x="-407.5" y="10526.21" as="targetPoint" />
          </mxGeometry>
        </mxCell>
        <mxCell id="G0KeurTFWzJhfIRalW9M-31" value="&lt;font style=&quot;font-size: 40px;&quot;&gt;&lt;span style=&quot;background-color: rgb(255, 255, 255); font-family: Consolas, &amp;quot;Courier New&amp;quot;, monospace; white-space: pre; color: light-dark(rgb(0, 0, 0), rgb(255, 255, 255));&quot;&gt;data_in_R_sub&lt;/span&gt;[0:7][24:0]&lt;/font&gt;" style="text;html=1;align=center;verticalAlign=middle;whiteSpace=wrap;rounded=0;fontSize=25;" vertex="1" parent="1">
          <mxGeometry x="-1175" y="10466.21" width="592" height="30" as="geometry" />
        </mxCell>
        <mxCell id="G0KeurTFWzJhfIRalW9M-32" value="" style="endArrow=classic;html=1;rounded=0;entryX=0;entryY=0.078;entryDx=0;entryDy=0;entryPerimeter=0;strokeWidth=6;fontSize=25;" edge="1" parent="1">
          <mxGeometry width="50" height="50" relative="1" as="geometry">
            <mxPoint x="-1166.5" y="10646.21" as="sourcePoint" />
            <mxPoint x="-407.5" y="10646.21" as="targetPoint" />
          </mxGeometry>
        </mxCell>
        <mxCell id="G0KeurTFWzJhfIRalW9M-33" value="&lt;font style=&quot;font-size: 40px;&quot;&gt;&lt;span style=&quot;background-color: rgb(255, 255, 255); font-family: Consolas, &amp;quot;Courier New&amp;quot;, monospace; white-space: pre; color: light-dark(rgb(0, 0, 0), rgb(255, 255, 255));&quot;&gt;data_in_Q_add&lt;/span&gt;[0:7][24:0]&lt;/font&gt;" style="text;html=1;align=center;verticalAlign=middle;whiteSpace=wrap;rounded=0;fontSize=25;" vertex="1" parent="1">
          <mxGeometry x="-1175" y="10586.21" width="592" height="30" as="geometry" />
        </mxCell>
        <mxCell id="G0KeurTFWzJhfIRalW9M-34" value="" style="endArrow=classic;html=1;rounded=0;exitX=1.013;exitY=0.178;exitDx=0;exitDy=0;exitPerimeter=0;strokeWidth=6;" edge="1" parent="1">
          <mxGeometry width="50" height="50" relative="1" as="geometry">
            <mxPoint x="15.75" y="10366.970000000001" as="sourcePoint" />
            <mxPoint x="115.75" y="10367.64" as="targetPoint" />
          </mxGeometry>
        </mxCell>
        <mxCell id="G0KeurTFWzJhfIRalW9M-35" value="&lt;font style=&quot;font-size: 22px;&quot;&gt;8&lt;/font&gt;" style="text;html=1;align=center;verticalAlign=middle;whiteSpace=wrap;rounded=0;" vertex="1" parent="1">
          <mxGeometry x="36.75" y="10330" width="58" height="30" as="geometry" />
        </mxCell>
        <mxCell id="G0KeurTFWzJhfIRalW9M-36" value="" style="endArrow=classic;html=1;rounded=0;exitX=1.013;exitY=0.178;exitDx=0;exitDy=0;exitPerimeter=0;strokeWidth=6;" edge="1" parent="1">
          <mxGeometry width="50" height="50" relative="1" as="geometry">
            <mxPoint x="15.75" y="10545.970000000001" as="sourcePoint" />
            <mxPoint x="115.75" y="10546.64" as="targetPoint" />
          </mxGeometry>
        </mxCell>
        <mxCell id="G0KeurTFWzJhfIRalW9M-37" value="&lt;font style=&quot;font-size: 22px;&quot;&gt;8&lt;/font&gt;" style="text;html=1;align=center;verticalAlign=middle;whiteSpace=wrap;rounded=0;" vertex="1" parent="1">
          <mxGeometry x="36.75" y="10509" width="58" height="30" as="geometry" />
        </mxCell>
        <mxCell id="G0KeurTFWzJhfIRalW9M-38" value="" style="endArrow=classic;html=1;rounded=0;exitX=1.013;exitY=0.178;exitDx=0;exitDy=0;exitPerimeter=0;strokeWidth=6;" edge="1" parent="1">
          <mxGeometry width="50" height="50" relative="1" as="geometry">
            <mxPoint x="14.5" y="10717.5" as="sourcePoint" />
            <mxPoint x="114.5" y="10718.17" as="targetPoint" />
          </mxGeometry>
        </mxCell>
        <mxCell id="G0KeurTFWzJhfIRalW9M-39" value="&lt;font style=&quot;font-size: 22px;&quot;&gt;8&lt;/font&gt;" style="text;html=1;align=center;verticalAlign=middle;whiteSpace=wrap;rounded=0;" vertex="1" parent="1">
          <mxGeometry x="35.5" y="10680.53" width="58" height="30" as="geometry" />
        </mxCell>
        <mxCell id="G0KeurTFWzJhfIRalW9M-40" value="" style="rounded=0;whiteSpace=wrap;html=1;" vertex="1" parent="1">
          <mxGeometry x="155.75" y="10095" width="900" height="180" as="geometry" />
        </mxCell>
        <mxCell id="G0KeurTFWzJhfIRalW9M-41" value="min_2in" style="whiteSpace=wrap;html=1;aspect=fixed;fontSize=25;" vertex="1" parent="1">
          <mxGeometry x="201.75" y="10125" width="130" height="130" as="geometry" />
        </mxCell>
        <mxCell id="G0KeurTFWzJhfIRalW9M-42" value="" style="endArrow=classic;html=1;rounded=0;exitX=1.013;exitY=0.178;exitDx=0;exitDy=0;exitPerimeter=0;strokeWidth=6;" edge="1" parent="1">
          <mxGeometry width="50" height="50" relative="1" as="geometry">
            <mxPoint x="335.75" y="10181.970000000001" as="sourcePoint" />
            <mxPoint x="435.75" y="10182.64" as="targetPoint" />
          </mxGeometry>
        </mxCell>
        <mxCell id="G0KeurTFWzJhfIRalW9M-43" value="&lt;font style=&quot;font-size: 22px;&quot;&gt;4&lt;/font&gt;" style="text;html=1;align=center;verticalAlign=middle;whiteSpace=wrap;rounded=0;" vertex="1" parent="1">
          <mxGeometry x="356.75" y="10145" width="58" height="30" as="geometry" />
        </mxCell>
        <mxCell id="G0KeurTFWzJhfIRalW9M-44" value="min_2in" style="whiteSpace=wrap;html=1;aspect=fixed;fontSize=25;" vertex="1" parent="1">
          <mxGeometry x="435.75" y="10125" width="130" height="130" as="geometry" />
        </mxCell>
        <mxCell id="G0KeurTFWzJhfIRalW9M-45" value="" style="endArrow=classic;html=1;rounded=0;exitX=1.013;exitY=0.178;exitDx=0;exitDy=0;exitPerimeter=0;strokeWidth=6;" edge="1" parent="1">
          <mxGeometry width="50" height="50" relative="1" as="geometry">
            <mxPoint x="795.75" y="10181.970000000001" as="sourcePoint" />
            <mxPoint x="895.75" y="10182.64" as="targetPoint" />
          </mxGeometry>
        </mxCell>
        <mxCell id="G0KeurTFWzJhfIRalW9M-46" value="&lt;font style=&quot;font-size: 22px;&quot;&gt;2&lt;/font&gt;" style="text;html=1;align=center;verticalAlign=middle;whiteSpace=wrap;rounded=0;" vertex="1" parent="1">
          <mxGeometry x="816.75" y="10145" width="58" height="30" as="geometry" />
        </mxCell>
        <mxCell id="G0KeurTFWzJhfIRalW9M-47" value="min_2in" style="whiteSpace=wrap;html=1;aspect=fixed;fontSize=25;" vertex="1" parent="1">
          <mxGeometry x="895.75" y="10125" width="130" height="130" as="geometry" />
        </mxCell>
        <mxCell id="G0KeurTFWzJhfIRalW9M-48" value="" style="rounded=0;whiteSpace=wrap;html=1;" vertex="1" parent="1">
          <mxGeometry x="155.75" y="10273" width="900" height="180" as="geometry" />
        </mxCell>
        <mxCell id="G0KeurTFWzJhfIRalW9M-49" value="" style="endArrow=classic;html=1;rounded=0;exitX=1.013;exitY=0.178;exitDx=0;exitDy=0;exitPerimeter=0;strokeWidth=6;" edge="1" parent="1">
          <mxGeometry width="50" height="50" relative="1" as="geometry">
            <mxPoint x="335.75" y="10361.970000000001" as="sourcePoint" />
            <mxPoint x="435.75" y="10362.64" as="targetPoint" />
          </mxGeometry>
        </mxCell>
        <mxCell id="G0KeurTFWzJhfIRalW9M-50" value="&lt;font style=&quot;font-size: 22px;&quot;&gt;4&lt;/font&gt;" style="text;html=1;align=center;verticalAlign=middle;whiteSpace=wrap;rounded=0;" vertex="1" parent="1">
          <mxGeometry x="356.75" y="10325" width="58" height="30" as="geometry" />
        </mxCell>
        <mxCell id="G0KeurTFWzJhfIRalW9M-51" value="min_2in" style="whiteSpace=wrap;html=1;aspect=fixed;fontSize=25;" vertex="1" parent="1">
          <mxGeometry x="201.75" y="10295" width="130" height="130" as="geometry" />
        </mxCell>
        <mxCell id="G0KeurTFWzJhfIRalW9M-52" value="min_2in" style="whiteSpace=wrap;html=1;aspect=fixed;fontSize=25;" vertex="1" parent="1">
          <mxGeometry x="435.75" y="10295" width="130" height="130" as="geometry" />
        </mxCell>
        <mxCell id="G0KeurTFWzJhfIRalW9M-53" value="" style="endArrow=classic;html=1;rounded=0;exitX=1.013;exitY=0.178;exitDx=0;exitDy=0;exitPerimeter=0;strokeWidth=6;" edge="1" parent="1">
          <mxGeometry width="50" height="50" relative="1" as="geometry">
            <mxPoint x="795.75" y="10358.01" as="sourcePoint" />
            <mxPoint x="895.75" y="10358.68" as="targetPoint" />
          </mxGeometry>
        </mxCell>
        <mxCell id="G0KeurTFWzJhfIRalW9M-54" value="&lt;font style=&quot;font-size: 22px;&quot;&gt;2&lt;/font&gt;" style="text;html=1;align=center;verticalAlign=middle;whiteSpace=wrap;rounded=0;" vertex="1" parent="1">
          <mxGeometry x="816.75" y="10321.04" width="58" height="30" as="geometry" />
        </mxCell>
        <mxCell id="G0KeurTFWzJhfIRalW9M-55" value="min_2in" style="whiteSpace=wrap;html=1;aspect=fixed;fontSize=25;" vertex="1" parent="1">
          <mxGeometry x="895.75" y="10295" width="130" height="130" as="geometry" />
        </mxCell>
        <mxCell id="G0KeurTFWzJhfIRalW9M-56" value="" style="rounded=0;whiteSpace=wrap;html=1;" vertex="1" parent="1">
          <mxGeometry x="155.75" y="10450" width="900" height="180" as="geometry" />
        </mxCell>
        <mxCell id="G0KeurTFWzJhfIRalW9M-57" value="" style="rounded=0;whiteSpace=wrap;html=1;" vertex="1" parent="1">
          <mxGeometry x="155.75" y="10630" width="900" height="180" as="geometry" />
        </mxCell>
        <mxCell id="G0KeurTFWzJhfIRalW9M-58" value="" style="endArrow=classic;html=1;rounded=0;exitX=1.013;exitY=0.178;exitDx=0;exitDy=0;exitPerimeter=0;strokeWidth=6;" edge="1" parent="1">
          <mxGeometry width="50" height="50" relative="1" as="geometry">
            <mxPoint x="333.75" y="10540.97" as="sourcePoint" />
            <mxPoint x="433.75" y="10541.64" as="targetPoint" />
          </mxGeometry>
        </mxCell>
        <mxCell id="G0KeurTFWzJhfIRalW9M-59" value="&lt;font style=&quot;font-size: 22px;&quot;&gt;4&lt;/font&gt;" style="text;html=1;align=center;verticalAlign=middle;whiteSpace=wrap;rounded=0;" vertex="1" parent="1">
          <mxGeometry x="354.75" y="10504" width="58" height="30" as="geometry" />
        </mxCell>
        <mxCell id="G0KeurTFWzJhfIRalW9M-60" value="" style="endArrow=classic;html=1;rounded=0;exitX=1.013;exitY=0.178;exitDx=0;exitDy=0;exitPerimeter=0;strokeWidth=6;" edge="1" parent="1">
          <mxGeometry width="50" height="50" relative="1" as="geometry">
            <mxPoint x="333.75" y="10711.97" as="sourcePoint" />
            <mxPoint x="433.75" y="10712.64" as="targetPoint" />
          </mxGeometry>
        </mxCell>
        <mxCell id="G0KeurTFWzJhfIRalW9M-61" value="&lt;span style=&quot;font-size: 22px;&quot;&gt;4&lt;/span&gt;" style="text;html=1;align=center;verticalAlign=middle;whiteSpace=wrap;rounded=0;" vertex="1" parent="1">
          <mxGeometry x="354.75" y="10675" width="58" height="30" as="geometry" />
        </mxCell>
        <mxCell id="G0KeurTFWzJhfIRalW9M-62" value="min_2in" style="whiteSpace=wrap;html=1;aspect=fixed;fontSize=25;" vertex="1" parent="1">
          <mxGeometry x="201.75" y="10645" width="130" height="130" as="geometry" />
        </mxCell>
        <mxCell id="G0KeurTFWzJhfIRalW9M-63" value="min_2in" style="whiteSpace=wrap;html=1;aspect=fixed;fontSize=25;" vertex="1" parent="1">
          <mxGeometry x="201.75" y="10475" width="130" height="130" as="geometry" />
        </mxCell>
        <mxCell id="G0KeurTFWzJhfIRalW9M-64" value="min_2in" style="whiteSpace=wrap;html=1;aspect=fixed;fontSize=25;" vertex="1" parent="1">
          <mxGeometry x="435.75" y="10645" width="130" height="130" as="geometry" />
        </mxCell>
        <mxCell id="G0KeurTFWzJhfIRalW9M-65" value="min_2in" style="whiteSpace=wrap;html=1;aspect=fixed;fontSize=25;" vertex="1" parent="1">
          <mxGeometry x="435.75" y="10475" width="130" height="130" as="geometry" />
        </mxCell>
        <mxCell id="G0KeurTFWzJhfIRalW9M-66" value="" style="endArrow=classic;html=1;rounded=0;exitX=1.013;exitY=0.178;exitDx=0;exitDy=0;exitPerimeter=0;strokeWidth=6;" edge="1" parent="1">
          <mxGeometry width="50" height="50" relative="1" as="geometry">
            <mxPoint x="795.75" y="10538.01" as="sourcePoint" />
            <mxPoint x="895.75" y="10538.68" as="targetPoint" />
          </mxGeometry>
        </mxCell>
        <mxCell id="G0KeurTFWzJhfIRalW9M-67" value="&lt;font style=&quot;font-size: 22px;&quot;&gt;2&lt;/font&gt;" style="text;html=1;align=center;verticalAlign=middle;whiteSpace=wrap;rounded=0;" vertex="1" parent="1">
          <mxGeometry x="816.75" y="10501.04" width="58" height="30" as="geometry" />
        </mxCell>
        <mxCell id="G0KeurTFWzJhfIRalW9M-68" value="min_2in" style="whiteSpace=wrap;html=1;aspect=fixed;fontSize=25;" vertex="1" parent="1">
          <mxGeometry x="895.75" y="10475" width="130" height="130" as="geometry" />
        </mxCell>
        <mxCell id="G0KeurTFWzJhfIRalW9M-69" value="" style="endArrow=classic;html=1;rounded=0;exitX=1.013;exitY=0.178;exitDx=0;exitDy=0;exitPerimeter=0;strokeWidth=6;" edge="1" parent="1">
          <mxGeometry width="50" height="50" relative="1" as="geometry">
            <mxPoint x="795.75" y="10708.01" as="sourcePoint" />
            <mxPoint x="895.75" y="10708.68" as="targetPoint" />
          </mxGeometry>
        </mxCell>
        <mxCell id="G0KeurTFWzJhfIRalW9M-70" value="&lt;font style=&quot;font-size: 22px;&quot;&gt;2&lt;/font&gt;" style="text;html=1;align=center;verticalAlign=middle;whiteSpace=wrap;rounded=0;" vertex="1" parent="1">
          <mxGeometry x="816.75" y="10671.04" width="58" height="30" as="geometry" />
        </mxCell>
        <mxCell id="G0KeurTFWzJhfIRalW9M-71" value="min_2in" style="whiteSpace=wrap;html=1;aspect=fixed;fontSize=25;" vertex="1" parent="1">
          <mxGeometry x="895.75" y="10645" width="130" height="130" as="geometry" />
        </mxCell>
        <mxCell id="G0KeurTFWzJhfIRalW9M-72" value="" style="endArrow=classic;html=1;rounded=0;exitX=1.013;exitY=0.178;exitDx=0;exitDy=0;exitPerimeter=0;strokeWidth=6;" edge="1" parent="1">
          <mxGeometry width="50" height="50" relative="1" as="geometry">
            <mxPoint x="1055.75" y="10239.58" as="sourcePoint" />
            <mxPoint x="1155.75" y="10240.25" as="targetPoint" />
          </mxGeometry>
        </mxCell>
        <mxCell id="G0KeurTFWzJhfIRalW9M-73" value="" style="endArrow=classic;html=1;rounded=0;exitX=1.013;exitY=0.178;exitDx=0;exitDy=0;exitPerimeter=0;strokeWidth=6;" edge="1" parent="1">
          <mxGeometry width="50" height="50" relative="1" as="geometry">
            <mxPoint x="1055.75" y="10305" as="sourcePoint" />
            <mxPoint x="1155.75" y="10305.67" as="targetPoint" />
          </mxGeometry>
        </mxCell>
        <mxCell id="G0KeurTFWzJhfIRalW9M-74" value="2_in_min[0]" style="whiteSpace=wrap;html=1;aspect=fixed;fontSize=25;" vertex="1" parent="1">
          <mxGeometry x="1155.75" y="10565" width="130" height="130" as="geometry" />
        </mxCell>
        <mxCell id="G0KeurTFWzJhfIRalW9M-75" value="" style="endArrow=classic;html=1;rounded=0;exitX=1.013;exitY=0.178;exitDx=0;exitDy=0;exitPerimeter=0;strokeWidth=6;" edge="1" parent="1">
          <mxGeometry width="50" height="50" relative="1" as="geometry">
            <mxPoint x="1055.75" y="10599.58" as="sourcePoint" />
            <mxPoint x="1155.75" y="10600.25" as="targetPoint" />
          </mxGeometry>
        </mxCell>
        <mxCell id="G0KeurTFWzJhfIRalW9M-76" value="" style="endArrow=classic;html=1;rounded=0;exitX=1.013;exitY=0.178;exitDx=0;exitDy=0;exitPerimeter=0;strokeWidth=6;" edge="1" parent="1">
          <mxGeometry width="50" height="50" relative="1" as="geometry">
            <mxPoint x="1055.75" y="10665" as="sourcePoint" />
            <mxPoint x="1155.75" y="10665.67" as="targetPoint" />
          </mxGeometry>
        </mxCell>
        <mxCell id="G0KeurTFWzJhfIRalW9M-77" value="&lt;span style=&quot;font-size: 25px;&quot;&gt;Pipe_reg&lt;/span&gt;&lt;div&gt;&lt;span style=&quot;font-size: 25px;&quot;&gt;&lt;br&gt;&lt;/span&gt;&lt;/div&gt;&lt;div&gt;&lt;span style=&quot;font-size: 25px;&quot;&gt;1clk delay&lt;/span&gt;&lt;/div&gt;" style="rounded=0;whiteSpace=wrap;html=1;" vertex="1" parent="1">
          <mxGeometry x="665.75" y="10645" width="130" height="130" as="geometry" />
        </mxCell>
        <mxCell id="G0KeurTFWzJhfIRalW9M-78" value="" style="endArrow=classic;html=1;rounded=0;exitX=1.013;exitY=0.178;exitDx=0;exitDy=0;exitPerimeter=0;strokeWidth=6;" edge="1" parent="1">
          <mxGeometry width="50" height="50" relative="1" as="geometry">
            <mxPoint x="565.75" y="10708.01" as="sourcePoint" />
            <mxPoint x="665.75" y="10708.68" as="targetPoint" />
          </mxGeometry>
        </mxCell>
        <mxCell id="G0KeurTFWzJhfIRalW9M-79" value="&lt;font style=&quot;font-size: 22px;&quot;&gt;2&lt;/font&gt;" style="text;html=1;align=center;verticalAlign=middle;whiteSpace=wrap;rounded=0;" vertex="1" parent="1">
          <mxGeometry x="586.75" y="10671.04" width="58" height="30" as="geometry" />
        </mxCell>
        <mxCell id="G0KeurTFWzJhfIRalW9M-80" value="&lt;span style=&quot;font-size: 25px;&quot;&gt;Pipe_reg&lt;/span&gt;&lt;div&gt;&lt;span style=&quot;font-size: 25px;&quot;&gt;&lt;br&gt;&lt;/span&gt;&lt;/div&gt;&lt;div&gt;&lt;span style=&quot;font-size: 25px;&quot;&gt;1clk delay&lt;/span&gt;&lt;/div&gt;" style="rounded=0;whiteSpace=wrap;html=1;" vertex="1" parent="1">
          <mxGeometry x="665.75" y="10475" width="130" height="130" as="geometry" />
        </mxCell>
        <mxCell id="G0KeurTFWzJhfIRalW9M-81" value="" style="endArrow=classic;html=1;rounded=0;exitX=1.013;exitY=0.178;exitDx=0;exitDy=0;exitPerimeter=0;strokeWidth=6;" edge="1" parent="1">
          <mxGeometry width="50" height="50" relative="1" as="geometry">
            <mxPoint x="565.75" y="10538.01" as="sourcePoint" />
            <mxPoint x="665.75" y="10538.68" as="targetPoint" />
          </mxGeometry>
        </mxCell>
        <mxCell id="G0KeurTFWzJhfIRalW9M-82" value="&lt;font style=&quot;font-size: 22px;&quot;&gt;2&lt;/font&gt;" style="text;html=1;align=center;verticalAlign=middle;whiteSpace=wrap;rounded=0;" vertex="1" parent="1">
          <mxGeometry x="586.75" y="10501.04" width="58" height="30" as="geometry" />
        </mxCell>
        <mxCell id="G0KeurTFWzJhfIRalW9M-83" value="&lt;span style=&quot;font-size: 25px;&quot;&gt;Pipe_reg&lt;/span&gt;&lt;div&gt;&lt;span style=&quot;font-size: 25px;&quot;&gt;&lt;br&gt;&lt;/span&gt;&lt;/div&gt;&lt;div&gt;&lt;span style=&quot;font-size: 25px;&quot;&gt;1clk delay&lt;/span&gt;&lt;/div&gt;" style="rounded=0;whiteSpace=wrap;html=1;" vertex="1" parent="1">
          <mxGeometry x="665.75" y="10125" width="130" height="130" as="geometry" />
        </mxCell>
        <mxCell id="G0KeurTFWzJhfIRalW9M-84" value="" style="endArrow=classic;html=1;rounded=0;exitX=1.013;exitY=0.178;exitDx=0;exitDy=0;exitPerimeter=0;strokeWidth=6;" edge="1" parent="1">
          <mxGeometry width="50" height="50" relative="1" as="geometry">
            <mxPoint x="565.75" y="10188.01" as="sourcePoint" />
            <mxPoint x="665.75" y="10188.68" as="targetPoint" />
          </mxGeometry>
        </mxCell>
        <mxCell id="G0KeurTFWzJhfIRalW9M-85" value="&lt;font style=&quot;font-size: 22px;&quot;&gt;2&lt;/font&gt;" style="text;html=1;align=center;verticalAlign=middle;whiteSpace=wrap;rounded=0;" vertex="1" parent="1">
          <mxGeometry x="586.75" y="10151.04" width="58" height="30" as="geometry" />
        </mxCell>
        <mxCell id="G0KeurTFWzJhfIRalW9M-86" value="&lt;span style=&quot;font-size: 25px;&quot;&gt;Pipe_reg&lt;/span&gt;&lt;div&gt;&lt;span style=&quot;font-size: 25px;&quot;&gt;&lt;br&gt;&lt;/span&gt;&lt;/div&gt;&lt;div&gt;&lt;span style=&quot;font-size: 25px;&quot;&gt;1clk delay&lt;/span&gt;&lt;/div&gt;" style="rounded=0;whiteSpace=wrap;html=1;" vertex="1" parent="1">
          <mxGeometry x="665.75" y="10295" width="130" height="130" as="geometry" />
        </mxCell>
        <mxCell id="G0KeurTFWzJhfIRalW9M-87" value="" style="endArrow=classic;html=1;rounded=0;exitX=1.013;exitY=0.178;exitDx=0;exitDy=0;exitPerimeter=0;strokeWidth=6;" edge="1" parent="1">
          <mxGeometry width="50" height="50" relative="1" as="geometry">
            <mxPoint x="565.75" y="10358.01" as="sourcePoint" />
            <mxPoint x="665.75" y="10358.68" as="targetPoint" />
          </mxGeometry>
        </mxCell>
        <mxCell id="G0KeurTFWzJhfIRalW9M-88" value="&lt;font style=&quot;font-size: 22px;&quot;&gt;2&lt;/font&gt;" style="text;html=1;align=center;verticalAlign=middle;whiteSpace=wrap;rounded=0;" vertex="1" parent="1">
          <mxGeometry x="586.75" y="10321.04" width="58" height="30" as="geometry" />
        </mxCell>
        <mxCell id="G0KeurTFWzJhfIRalW9M-89" value="" style="endArrow=classic;html=1;rounded=0;exitX=1.013;exitY=0.178;exitDx=0;exitDy=0;exitPerimeter=0;strokeWidth=6;" edge="1" parent="1">
          <mxGeometry width="50" height="50" relative="1" as="geometry">
            <mxPoint x="1285.75" y="10628.01" as="sourcePoint" />
            <mxPoint x="1385.75" y="10628.68" as="targetPoint" />
          </mxGeometry>
        </mxCell>
        <mxCell id="G0KeurTFWzJhfIRalW9M-90" value="&lt;span style=&quot;font-size: 25px;&quot;&gt;Pipe_reg&lt;/span&gt;&lt;div&gt;&lt;span style=&quot;font-size: 25px;&quot;&gt;&lt;br&gt;&lt;/span&gt;&lt;/div&gt;&lt;div&gt;&lt;span style=&quot;font-size: 25px;&quot;&gt;1clk delay&lt;/span&gt;&lt;/div&gt;" style="rounded=0;whiteSpace=wrap;html=1;" vertex="1" parent="1">
          <mxGeometry x="1385.75" y="10565" width="130" height="130" as="geometry" />
        </mxCell>
        <mxCell id="G0KeurTFWzJhfIRalW9M-91" value="&lt;span style=&quot;font-size: 25px;&quot;&gt;Pipe_reg&lt;/span&gt;&lt;div&gt;&lt;span style=&quot;font-size: 25px;&quot;&gt;&lt;br&gt;&lt;/span&gt;&lt;/div&gt;&lt;div&gt;&lt;span style=&quot;font-size: 25px;&quot;&gt;1clk delay&lt;/span&gt;&lt;/div&gt;" style="rounded=0;whiteSpace=wrap;html=1;" vertex="1" parent="1">
          <mxGeometry x="1385.75" y="10205" width="130" height="130" as="geometry" />
        </mxCell>
        <mxCell id="G0KeurTFWzJhfIRalW9M-92" value="" style="endArrow=classic;html=1;rounded=0;exitX=1.013;exitY=0.178;exitDx=0;exitDy=0;exitPerimeter=0;strokeWidth=6;" edge="1" parent="1">
          <mxGeometry width="50" height="50" relative="1" as="geometry">
            <mxPoint x="1285.75" y="10268.01" as="sourcePoint" />
            <mxPoint x="1385.75" y="10268.68" as="targetPoint" />
          </mxGeometry>
        </mxCell>
        <mxCell id="G0KeurTFWzJhfIRalW9M-93" value="" style="endArrow=classic;html=1;rounded=0;exitX=1;exitY=0.5;exitDx=0;exitDy=0;strokeWidth=6;entryX=0.015;entryY=0.486;entryDx=0;entryDy=0;entryPerimeter=0;" edge="1" parent="1" source="G0KeurTFWzJhfIRalW9M-91">
          <mxGeometry width="50" height="50" relative="1" as="geometry">
            <mxPoint x="1555" y="10272.05" as="sourcePoint" />
            <mxPoint x="1689" y="10272.25" as="targetPoint" />
          </mxGeometry>
        </mxCell>
        <mxCell id="G0KeurTFWzJhfIRalW9M-94" value="&lt;font style=&quot;font-size: 28px;&quot;&gt;scaling-factor&lt;/font&gt;" style="text;html=1;align=center;verticalAlign=middle;whiteSpace=wrap;rounded=0;" vertex="1" parent="1">
          <mxGeometry x="1585" y="10199.05" width="60" height="30" as="geometry" />
        </mxCell>
        <mxCell id="G0KeurTFWzJhfIRalW9M-95" value="BIT_SHIFT" style="rounded=0;whiteSpace=wrap;html=1;fontSize=33;" vertex="1" parent="1">
          <mxGeometry x="1689" y="10165" width="516" height="560" as="geometry" />
        </mxCell>
        <mxCell id="G0KeurTFWzJhfIRalW9M-96" value="" style="endArrow=classic;html=1;rounded=0;exitX=1;exitY=0.5;exitDx=0;exitDy=0;strokeWidth=6;entryX=0.015;entryY=0.486;entryDx=0;entryDy=0;entryPerimeter=0;" edge="1" parent="1">
          <mxGeometry width="50" height="50" relative="1" as="geometry">
            <mxPoint x="1516" y="10635.56" as="sourcePoint" />
            <mxPoint x="1689" y="10637.810000000001" as="targetPoint" />
          </mxGeometry>
        </mxCell>
        <mxCell id="G0KeurTFWzJhfIRalW9M-97" value="&lt;font style=&quot;font-size: 28px;&quot;&gt;scaling-factor&lt;/font&gt;" style="text;html=1;align=center;verticalAlign=middle;whiteSpace=wrap;rounded=0;" vertex="1" parent="1">
          <mxGeometry x="1585" y="10564.61" width="60" height="30" as="geometry" />
        </mxCell>
        <mxCell id="G0KeurTFWzJhfIRalW9M-98" value="" style="edgeStyle=segmentEdgeStyle;endArrow=classic;html=1;curved=0;rounded=0;endSize=8;startSize=8;entryX=-0.002;entryY=0.185;entryDx=0;entryDy=0;entryPerimeter=0;strokeWidth=6;" edge="1" parent="1" source="G0KeurTFWzJhfIRalW9M-99" target="G0KeurTFWzJhfIRalW9M-20">
          <mxGeometry width="50" height="50" relative="1" as="geometry">
            <mxPoint x="-607" y="10270" as="sourcePoint" />
            <mxPoint x="-437" y="9810" as="targetPoint" />
            <Array as="points">
              <mxPoint x="-607" y="9160" />
            </Array>
          </mxGeometry>
        </mxCell>
        <mxCell id="G0KeurTFWzJhfIRalW9M-99" value="" style="shape=waypoint;sketch=0;fillStyle=solid;size=6;pointerEvents=1;points=[];fillColor=none;resizable=0;rotatable=0;perimeter=centerPerimeter;snapToPoint=1;strokeWidth=7;" vertex="1" parent="1">
          <mxGeometry x="-615" y="10255" width="20" height="20" as="geometry" />
        </mxCell>
        <mxCell id="G0KeurTFWzJhfIRalW9M-100" value="" style="edgeStyle=segmentEdgeStyle;endArrow=classic;html=1;curved=0;rounded=0;endSize=8;startSize=8;strokeWidth=6;" edge="1" parent="1" source="G0KeurTFWzJhfIRalW9M-101">
          <mxGeometry width="50" height="50" relative="1" as="geometry">
            <mxPoint x="-565" y="10410" as="sourcePoint" />
            <mxPoint x="285" y="9360" as="targetPoint" />
            <Array as="points">
              <mxPoint x="-563" y="9360" />
            </Array>
          </mxGeometry>
        </mxCell>
        <mxCell id="G0KeurTFWzJhfIRalW9M-101" value="" style="shape=waypoint;sketch=0;fillStyle=solid;size=6;pointerEvents=1;points=[];fillColor=none;resizable=0;rotatable=0;perimeter=centerPerimeter;snapToPoint=1;strokeWidth=7;" vertex="1" parent="1">
          <mxGeometry x="-573" y="10395" width="20" height="20" as="geometry" />
        </mxCell>
        <mxCell id="G0KeurTFWzJhfIRalW9M-102" value="" style="edgeStyle=segmentEdgeStyle;endArrow=classic;html=1;curved=0;rounded=0;endSize=8;startSize=8;strokeWidth=6;" edge="1" parent="1" source="G0KeurTFWzJhfIRalW9M-103">
          <mxGeometry width="50" height="50" relative="1" as="geometry">
            <mxPoint x="-527" y="10529" as="sourcePoint" />
            <mxPoint x="285" y="9560" as="targetPoint" />
            <Array as="points">
              <mxPoint x="-525" y="9560" />
              <mxPoint x="285" y="9560" />
            </Array>
          </mxGeometry>
        </mxCell>
        <mxCell id="G0KeurTFWzJhfIRalW9M-103" value="" style="shape=waypoint;sketch=0;fillStyle=solid;size=6;pointerEvents=1;points=[];fillColor=none;resizable=0;rotatable=0;perimeter=centerPerimeter;snapToPoint=1;strokeWidth=7;" vertex="1" parent="1">
          <mxGeometry x="-535" y="10514" width="20" height="20" as="geometry" />
        </mxCell>
        <mxCell id="G0KeurTFWzJhfIRalW9M-104" value="" style="edgeStyle=segmentEdgeStyle;endArrow=classic;html=1;curved=0;rounded=0;endSize=8;startSize=8;strokeWidth=6;" edge="1" parent="1" source="G0KeurTFWzJhfIRalW9M-105">
          <mxGeometry width="50" height="50" relative="1" as="geometry">
            <mxPoint x="-487" y="10653" as="sourcePoint" />
            <mxPoint x="285" y="9760" as="targetPoint" />
            <Array as="points">
              <mxPoint x="-485" y="9760" />
            </Array>
          </mxGeometry>
        </mxCell>
        <mxCell id="G0KeurTFWzJhfIRalW9M-105" value="" style="shape=waypoint;sketch=0;fillStyle=solid;size=6;pointerEvents=1;points=[];fillColor=none;resizable=0;rotatable=0;perimeter=centerPerimeter;snapToPoint=1;strokeWidth=7;" vertex="1" parent="1">
          <mxGeometry x="-495" y="10638" width="20" height="20" as="geometry" />
        </mxCell>
        <mxCell id="G0KeurTFWzJhfIRalW9M-106" value="" style="endArrow=classic;html=1;rounded=0;entryX=0.378;entryY=0.007;entryDx=0;entryDy=0;entryPerimeter=0;strokeWidth=6;fontSize=25;exitX=1.003;exitY=0.839;exitDx=0;exitDy=0;exitPerimeter=0;" edge="1" parent="1" target="G0KeurTFWzJhfIRalW9M-95">
          <mxGeometry width="50" height="50" relative="1" as="geometry">
            <mxPoint x="1385.75" y="9567.4" as="sourcePoint" />
            <mxPoint x="1764.2849999999999" y="9975" as="targetPoint" />
            <Array as="points">
              <mxPoint x="1884" y="9568" />
            </Array>
          </mxGeometry>
        </mxCell>
        <mxCell id="G0KeurTFWzJhfIRalW9M-107" value="" style="endArrow=classic;html=1;rounded=0;entryX=0.632;entryY=0.002;entryDx=0;entryDy=0;entryPerimeter=0;strokeWidth=6;fontSize=25;exitX=1.003;exitY=0.839;exitDx=0;exitDy=0;exitPerimeter=0;" edge="1" parent="1" target="G0KeurTFWzJhfIRalW9M-95">
          <mxGeometry width="50" height="50" relative="1" as="geometry">
            <mxPoint x="1382" y="9360" as="sourcePoint" />
            <mxPoint x="1760.5349999999999" y="9767.6" as="targetPoint" />
            <Array as="points">
              <mxPoint x="2015" y="9360" />
            </Array>
          </mxGeometry>
        </mxCell>
        <mxCell id="G0KeurTFWzJhfIRalW9M-108" value="" style="endArrow=classic;html=1;rounded=0;entryX=0.871;entryY=0.002;entryDx=0;entryDy=0;entryPerimeter=0;strokeWidth=6;fontSize=25;exitX=1.001;exitY=0.182;exitDx=0;exitDy=0;exitPerimeter=0;" edge="1" parent="1" source="G0KeurTFWzJhfIRalW9M-20" target="G0KeurTFWzJhfIRalW9M-95">
          <mxGeometry width="50" height="50" relative="1" as="geometry">
            <mxPoint x="1385.75" y="9120" as="sourcePoint" />
            <mxPoint x="1764.2849999999999" y="9527.6" as="targetPoint" />
            <Array as="points">
              <mxPoint x="2138" y="9157" />
            </Array>
          </mxGeometry>
        </mxCell>
        <mxCell id="G0KeurTFWzJhfIRalW9M-109" value="&lt;font style=&quot;font-size: 40px;&quot;&gt;&lt;span style=&quot;background-color: rgb(255, 255, 255); font-family: Consolas, &amp;quot;Courier New&amp;quot;, monospace; white-space: pre; color: light-dark(rgb(0, 0, 0), rgb(255, 255, 255));&quot;&gt;data_out_R_add&lt;/span&gt;[0:7][11:0]&lt;/font&gt;" style="text;html=1;align=center;verticalAlign=middle;whiteSpace=wrap;rounded=0;fontSize=25;" vertex="1" parent="1">
          <mxGeometry x="2205" y="10206.21" width="592" height="30" as="geometry" />
        </mxCell>
        <mxCell id="G0KeurTFWzJhfIRalW9M-110" value="" style="endArrow=classic;html=1;rounded=0;strokeWidth=6;fontSize=25;" edge="1" parent="1">
          <mxGeometry width="50" height="50" relative="1" as="geometry">
            <mxPoint x="2213.5" y="10266.21" as="sourcePoint" />
            <mxPoint x="2795" y="10266" as="targetPoint" />
          </mxGeometry>
        </mxCell>
        <mxCell id="G0KeurTFWzJhfIRalW9M-111" value="&lt;font style=&quot;font-size: 40px;&quot;&gt;&lt;span style=&quot;background-color: rgb(255, 255, 255); font-family: Consolas, &amp;quot;Courier New&amp;quot;, monospace; white-space: pre; color: light-dark(rgb(0, 0, 0), rgb(255, 255, 255));&quot;&gt;data_out_Q_add&lt;/span&gt;[0:7][11:0]&lt;/font&gt;" style="text;html=1;align=center;verticalAlign=middle;whiteSpace=wrap;rounded=0;fontSize=25;" vertex="1" parent="1">
          <mxGeometry x="2205" y="10346.21" width="592" height="30" as="geometry" />
        </mxCell>
        <mxCell id="G0KeurTFWzJhfIRalW9M-112" value="" style="endArrow=classic;html=1;rounded=0;strokeWidth=6;fontSize=25;" edge="1" parent="1">
          <mxGeometry width="50" height="50" relative="1" as="geometry">
            <mxPoint x="2213.5" y="10406.21" as="sourcePoint" />
            <mxPoint x="2795" y="10406" as="targetPoint" />
          </mxGeometry>
        </mxCell>
        <mxCell id="G0KeurTFWzJhfIRalW9M-113" value="&lt;font style=&quot;font-size: 40px;&quot;&gt;&lt;span style=&quot;background-color: rgb(255, 255, 255); font-family: Consolas, &amp;quot;Courier New&amp;quot;, monospace; white-space: pre; color: light-dark(rgb(0, 0, 0), rgb(255, 255, 255));&quot;&gt;data_out_R_sub&lt;/span&gt;[0:7][11:0]&lt;/font&gt;" style="text;html=1;align=center;verticalAlign=middle;whiteSpace=wrap;rounded=0;fontSize=25;" vertex="1" parent="1">
          <mxGeometry x="2205" y="10466.21" width="592" height="30" as="geometry" />
        </mxCell>
        <mxCell id="G0KeurTFWzJhfIRalW9M-114" value="" style="endArrow=classic;html=1;rounded=0;strokeWidth=6;fontSize=25;" edge="1" parent="1">
          <mxGeometry width="50" height="50" relative="1" as="geometry">
            <mxPoint x="2213.5" y="10526.21" as="sourcePoint" />
            <mxPoint x="2795" y="10526" as="targetPoint" />
          </mxGeometry>
        </mxCell>
        <mxCell id="G0KeurTFWzJhfIRalW9M-115" value="&lt;font style=&quot;font-size: 40px;&quot;&gt;&lt;span style=&quot;background-color: rgb(255, 255, 255); font-family: Consolas, &amp;quot;Courier New&amp;quot;, monospace; white-space: pre; color: light-dark(rgb(0, 0, 0), rgb(255, 255, 255));&quot;&gt;data_out_Q_add&lt;/span&gt;[0:7][11:0]&lt;/font&gt;" style="text;html=1;align=center;verticalAlign=middle;whiteSpace=wrap;rounded=0;fontSize=25;" vertex="1" parent="1">
          <mxGeometry x="2205" y="10586.21" width="592" height="30" as="geometry" />
        </mxCell>
        <mxCell id="G0KeurTFWzJhfIRalW9M-116" value="" style="endArrow=classic;html=1;rounded=0;strokeWidth=6;fontSize=25;" edge="1" parent="1">
          <mxGeometry width="50" height="50" relative="1" as="geometry">
            <mxPoint x="2213.5" y="10646.21" as="sourcePoint" />
            <mxPoint x="2795" y="10646" as="targetPoint" />
          </mxGeometry>
        </mxCell>
        <mxCell id="G0KeurTFWzJhfIRalW9M-117" value="&lt;font style=&quot;font-size: 500px;&quot;&gt;CU&lt;/font&gt;" style="rounded=0;whiteSpace=wrap;html=1;" vertex="1" parent="1">
          <mxGeometry x="-1140" y="11090" width="3910" height="750" as="geometry" />
        </mxCell>
        <mxCell id="G0KeurTFWzJhfIRalW9M-118" value="" style="endArrow=classic;html=1;rounded=0;fontStyle=1;strokeWidth=11;" edge="1" parent="1">
          <mxGeometry width="50" height="50" relative="1" as="geometry">
            <mxPoint x="-1770" y="11460" as="sourcePoint" />
            <mxPoint x="-1140" y="11460" as="targetPoint" />
          </mxGeometry>
        </mxCell>
        <mxCell id="G0KeurTFWzJhfIRalW9M-119" value="&lt;b&gt;&lt;font style=&quot;font-size: 100px;&quot;&gt;alert_mod12&lt;/font&gt;&lt;/b&gt;" style="text;html=1;align=center;verticalAlign=middle;whiteSpace=wrap;rounded=0;" vertex="1" parent="1">
          <mxGeometry x="-1560" y="11280" width="250" height="100" as="geometry" />
        </mxCell>
        <mxCell id="G0KeurTFWzJhfIRalW9M-120" style="edgeStyle=orthogonalEdgeStyle;rounded=0;orthogonalLoop=1;jettySize=auto;html=1;exitX=0.25;exitY=0;exitDx=0;exitDy=0;entryX=0.573;entryY=0.999;entryDx=0;entryDy=0;entryPerimeter=0;" edge="1" parent="1" source="G0KeurTFWzJhfIRalW9M-117" target="G0KeurTFWzJhfIRalW9M-13">
          <mxGeometry relative="1" as="geometry" />
        </mxCell>
        <mxCell id="G0KeurTFWzJhfIRalW9M-121" value="" style="endArrow=classic;html=1;rounded=0;fontStyle=1;strokeWidth=11;" edge="1" parent="1">
          <mxGeometry width="50" height="50" relative="1" as="geometry">
            <mxPoint x="2780" y="11450" as="sourcePoint" />
            <mxPoint x="3410" y="11450" as="targetPoint" />
          </mxGeometry>
        </mxCell>
        <mxCell id="G0KeurTFWzJhfIRalW9M-122" value="&lt;b&gt;&lt;font style=&quot;font-size: 100px;&quot;&gt;alert_cbfp1&lt;/font&gt;&lt;/b&gt;" style="text;html=1;align=center;verticalAlign=middle;whiteSpace=wrap;rounded=0;" vertex="1" parent="1">
          <mxGeometry x="2850" y="11265" width="690" height="130" as="geometry" />
        </mxCell>
        <mxCell id="G0KeurTFWzJhfIRalW9M-123" style="edgeStyle=orthogonalEdgeStyle;rounded=0;orthogonalLoop=1;jettySize=auto;html=1;entryX=0.485;entryY=0.998;entryDx=0;entryDy=0;entryPerimeter=0;" edge="1" parent="1" source="G0KeurTFWzJhfIRalW9M-117" target="G0KeurTFWzJhfIRalW9M-14">
          <mxGeometry relative="1" as="geometry" />
        </mxCell>
        <mxCell id="G0KeurTFWzJhfIRalW9M-124" value="" style="shape=card;whiteSpace=wrap;html=1;" vertex="1" parent="1">
          <mxGeometry x="640" y="10530" width="80" height="100" as="geometry" />
        </mxCell>
      </root>
    </mxGraphModel>
  </diagram>
</mxfile>
